<svg width="441" height="437" viewBox="0 0 441 437" fill="none" xmlns="http://www.w3.org/2000/svg">
<path d="M180.977 91.44C174.197 91.44 169.217 89.73 166.037 86.31C162.857 82.89 161.267 77.22 161.267 69.3C161.267 63 162.317 56.22 164.417 48.96C166.577 41.7 169.997 35.49 174.677 30.33C179.417 25.11 185.417 22.5 192.677 22.5C197.177 22.5 200.807 23.49 203.567 25.47C206.327 27.45 207.707 30.48 207.707 34.56C207.707 37.14 207.197 39.18 206.177 40.68C205.157 42.12 203.567 42.84 201.407 42.84C199.247 42.84 197.537 42.06 196.277 40.5C197.357 39.96 198.317 38.88 199.157 37.26C199.997 35.64 200.417 33.96 200.417 32.22C200.417 30.6 199.967 29.28 199.067 28.26C198.227 27.24 196.847 26.73 194.927 26.73C191.747 26.73 188.717 28.92 185.837 33.3C182.957 37.62 180.617 43.08 178.817 49.68C177.077 56.28 176.207 62.64 176.207 68.76C176.207 73.32 176.987 76.8 178.547 79.2C180.107 81.6 182.927 82.8 187.007 82.8C190.547 82.8 193.817 82.02 196.817 80.46C199.817 78.9 202.397 76.68 204.557 73.8L206.627 74.7C205.127 78.48 202.907 81.63 199.967 84.15C197.027 86.67 193.877 88.53 190.517 89.73C187.157 90.87 183.977 91.44 180.977 91.44ZM213.203 90.54C210.323 90.54 207.983 89.64 206.183 87.84C204.443 86.04 203.573 83.34 203.573 79.74C203.573 78.24 203.813 76.29 204.293 73.89L213.923 28.8L227.243 27L216.893 75.6C216.653 76.5 216.533 77.46 216.533 78.48C216.533 79.68 216.803 80.55 217.343 81.09C217.943 81.57 218.903 81.81 220.223 81.81C221.963 81.81 223.583 81.09 225.083 79.65C226.583 78.15 227.663 76.23 228.323 73.89H232.103C229.883 80.37 227.033 84.78 223.553 87.12C220.073 89.4 216.623 90.54 213.203 90.54ZM277.067 90.54C272.267 90.54 268.967 89.4 267.167 87.12C265.427 84.84 264.557 81.99 264.557 78.57C264.557 76.05 265.217 74.01 266.537 72.45C267.857 70.83 269.357 70.02 271.037 70.02C274.157 70.02 275.717 71.28 275.717 73.8C275.717 74.88 275.297 75.84 274.457 76.68C273.617 77.46 272.597 77.85 271.397 77.85C270.137 77.85 269.327 77.46 268.967 76.68C268.967 78.84 269.387 80.52 270.227 81.72C271.127 82.86 272.447 83.43 274.187 83.43C276.227 83.43 277.667 82.83 278.507 81.63C279.407 80.37 279.857 78.18 279.857 75.06C279.857 73.26 279.677 70.98 279.317 68.22C278.717 62.46 278.237 56.58 277.877 50.58C273.617 57.12 268.577 61.26 262.757 63C262.397 68.52 261.227 73.35 259.247 77.49C257.267 81.63 254.717 84.81 251.597 87.03C248.537 89.25 245.147 90.36 241.427 90.36C236.987 90.36 233.477 89.22 230.897 86.94C228.317 84.66 227.027 81.06 227.027 76.14C227.027 72 227.837 67.47 229.457 62.55C231.077 57.57 233.717 53.28 237.377 49.68C241.037 46.02 245.717 44.19 251.417 44.19C259.037 44.19 262.877 48.9 262.937 58.32C267.377 58.08 272.267 53.31 277.607 44.01L290.927 42.21C291.227 49.89 291.737 58.2 292.457 67.14C292.757 70.74 292.907 73.35 292.907 74.97C292.907 76.17 292.817 77.28 292.637 78.3C294.437 77.28 296.567 75.81 299.027 73.89H302.807C299.507 77.73 295.337 81.24 290.297 84.42C288.797 86.58 286.877 88.14 284.537 89.1C282.257 90.06 279.767 90.54 277.067 90.54ZM245.027 82.26C247.247 82.26 249.317 80.49 251.237 76.95C253.157 73.35 254.477 68.91 255.197 63.63C253.757 63.09 253.037 61.74 253.037 59.58C253.037 57.24 253.877 55.68 255.557 54.9C255.437 52.98 255.107 51.63 254.567 50.85C254.087 50.07 253.277 49.68 252.137 49.68C250.157 49.68 248.267 51.12 246.467 54C244.667 56.82 243.197 60.27 242.057 64.35C240.977 68.37 240.437 71.91 240.437 74.97C240.437 77.85 240.767 79.8 241.427 80.82C242.087 81.78 243.287 82.26 245.027 82.26ZM311.729 90.54C307.349 90.54 303.929 89.4 301.469 87.12C299.009 84.78 297.779 81.15 297.779 76.23C297.779 72.09 298.589 67.53 300.209 62.55C301.829 57.57 304.469 53.28 308.129 49.68C311.789 46.02 316.439 44.19 322.079 44.19C328.679 44.19 331.979 47.07 331.979 52.83C331.979 56.19 331.019 59.28 329.099 62.1C327.179 64.92 324.629 67.2 321.449 68.94C318.269 70.62 314.879 71.58 311.279 71.82C311.159 73.14 311.099 74.04 311.099 74.52C311.099 79.5 312.959 81.99 316.679 81.99C318.359 81.99 320.159 81.54 322.079 80.64C323.999 79.74 325.739 78.6 327.299 77.22C325.679 86.1 320.489 90.54 311.729 90.54ZM311.909 67.5C314.189 67.44 316.319 66.69 318.299 65.25C320.339 63.81 321.959 61.98 323.159 59.76C324.419 57.48 325.049 55.11 325.049 52.65C325.049 50.19 324.299 48.96 322.799 48.96C320.699 48.96 318.599 50.88 316.499 54.72C314.459 58.5 312.929 62.76 311.909 67.5ZM340.638 42.39C341.898 41.07 342.888 39.84 343.608 38.7C344.328 37.56 344.688 36.63 344.688 35.91C344.688 35.49 344.538 35.1 344.238 34.74C343.998 34.38 343.608 33.99 343.068 33.57C342.228 32.91 341.568 32.22 341.088 31.5C340.608 30.78 340.368 29.82 340.368 28.62C340.368 26.76 340.938 25.26 342.078 24.12C343.218 22.92 344.658 22.32 346.398 22.32C348.258 22.32 349.758 22.92 350.898 24.12C352.098 25.26 352.698 26.76 352.698 28.62C352.698 30.96 351.708 33.54 349.728 36.36C347.808 39.12 345.228 41.58 341.988 43.74L340.638 42.39Z" fill="white"/>
<g filter="url(#filter0_d_11_123)">
<path d="M122.14 189.478C118.14 189.478 114.64 188.628 111.64 186.928C108.74 185.328 107.29 182.478 107.29 178.378C107.29 175.778 107.94 172.878 109.24 169.678C111.04 171.678 112.69 173.078 114.19 173.878C115.79 174.678 117.49 175.078 119.29 175.078C124.29 175.078 127.99 172.278 130.39 166.678C132.89 161.078 134.14 154.878 134.14 148.078C134.14 135.378 129.39 129.028 119.89 129.028C117.19 129.028 114.89 129.178 112.99 129.478L100.69 186.928H79.0898L99.4898 91.5277L121.69 88.5277L114.64 121.828H115.54C119.34 121.828 122.89 120.628 126.19 118.228C129.49 115.728 132.14 112.628 134.14 108.928C136.14 105.128 137.14 101.328 137.14 97.5277C137.14 92.9277 135.49 89.0777 132.19 85.9777C128.99 82.8777 124.04 81.3277 117.34 81.3277C111.24 81.3277 105.29 82.7277 99.4898 85.5277C93.6898 88.2277 88.9398 92.3277 85.2398 97.8277C81.6398 103.328 79.8398 109.978 79.8398 117.778C79.8398 121.478 80.1898 124.078 80.8898 125.578C81.5898 126.978 81.9398 127.778 81.9398 127.978C76.6398 127.978 72.6398 126.928 69.9398 124.828C67.2398 122.628 65.8898 119.078 65.8898 114.178C65.8898 107.378 68.4398 100.928 73.5398 94.8277C78.6398 88.7277 85.3898 83.8277 93.7898 80.1277C102.19 76.3277 111.04 74.4277 120.34 74.4277C127.34 74.4277 133.24 75.5277 138.04 77.7277C142.84 79.9277 146.39 82.8277 148.69 86.4277C151.09 90.0277 152.29 93.9777 152.29 98.2777C152.29 102.878 150.99 107.328 148.39 111.628C145.79 115.928 142.09 119.428 137.29 122.128C143.29 123.228 147.74 126.028 150.64 130.528C153.54 134.928 154.99 140.178 154.99 146.278C154.99 151.978 153.89 158.178 151.69 164.878C149.59 171.578 146.04 177.378 141.04 182.278C136.14 187.078 129.84 189.478 122.14 189.478ZM175.034 187.828C170.234 187.828 166.334 186.328 163.334 183.328C160.434 180.328 158.984 175.828 158.984 169.828C158.984 167.328 159.384 164.078 160.184 160.078L170.384 111.928H191.984L181.184 162.928C180.884 164.428 180.734 165.828 180.734 167.128C180.734 171.228 182.234 173.278 185.234 173.278C188.034 173.278 190.434 172.128 192.434 169.828C194.434 167.428 196.034 164.178 197.234 160.078L207.434 111.928H229.034L218.234 162.928C217.834 164.428 217.634 166.028 217.634 167.728C217.634 169.728 218.084 171.178 218.984 172.078C219.984 172.878 221.584 173.278 223.784 173.278C226.584 173.278 228.984 172.078 230.984 169.678C233.084 167.278 234.734 164.078 235.934 160.078H242.234C238.534 170.878 233.934 178.228 228.434 182.128C223.034 185.928 217.584 187.828 212.084 187.828C207.784 187.828 204.334 186.628 201.734 184.228C199.234 181.828 197.734 178.278 197.234 173.578C193.834 179.078 190.234 182.828 186.434 184.828C182.734 186.828 178.934 187.828 175.034 187.828ZM259.316 224.428C254.616 224.428 250.466 222.878 246.866 219.778C243.366 216.778 241.616 212.928 241.616 208.228C241.616 203.828 242.716 200.228 244.916 197.428C247.116 194.628 249.966 192.428 253.466 190.828C256.966 189.228 261.666 187.528 267.566 185.728L269.066 179.128C263.966 184.928 257.866 187.828 250.766 187.828C245.966 187.828 242.066 186.328 239.066 183.328C236.166 180.328 234.716 175.828 234.716 169.828C234.716 167.328 235.116 164.078 235.916 160.078L246.116 111.928H267.716L256.916 162.928C256.616 164.128 256.466 165.378 256.466 166.678C256.466 171.078 257.966 173.278 260.966 173.278C263.766 173.278 266.166 172.128 268.166 169.828C270.166 167.428 271.766 164.178 272.966 160.078L283.166 111.928H304.916L286.616 198.928C284.616 208.528 281.066 215.178 275.966 218.878C270.966 222.578 265.416 224.428 259.316 224.428ZM255.866 211.078C257.666 211.078 259.366 210.128 260.966 208.228C262.566 206.428 263.816 203.478 264.716 199.378L266.516 190.528C261.216 192.328 257.116 194.428 254.216 196.828C251.316 199.228 249.866 202.328 249.866 206.128C249.866 207.328 250.466 208.428 251.666 209.428C252.866 210.528 254.266 211.078 255.866 211.078Z" fill="white"/>
</g>
<rect x="11" y="346" width="348" height="91" rx="45.5" fill="#0024A3"/>
<path d="M74.8302 403.476C70.9995 403.476 68.0755 402.411 66.0582 400.28C64.0635 398.149 63.0662 395.123 63.0662 391.202C63.0662 389.253 63.3722 387.519 63.9842 386C64.5962 384.459 65.4349 383.167 66.5002 382.124C67.5655 381.059 68.8349 380.254 70.3082 379.71C71.7815 379.166 73.3795 378.894 75.1022 378.894C76.0995 378.894 77.0062 378.973 77.8222 379.132C78.6382 379.268 79.3522 379.438 79.9642 379.642C80.5762 379.823 81.0862 380.016 81.4942 380.22C81.9022 380.424 82.1969 380.583 82.3782 380.696L80.8482 384.98C80.1229 384.595 79.2729 384.266 78.2982 383.994C77.3462 383.722 76.2582 383.586 75.0342 383.586C74.2182 383.586 73.4135 383.722 72.6202 383.994C71.8495 384.266 71.1582 384.708 70.5462 385.32C69.9569 385.909 69.4809 386.68 69.1182 387.632C68.7555 388.584 68.5742 389.74 68.5742 391.1C68.5742 392.188 68.6875 393.208 68.9142 394.16C69.1635 395.089 69.5489 395.894 70.0702 396.574C70.6142 397.254 71.3169 397.798 72.1782 398.206C73.0395 398.591 74.0822 398.784 75.3062 398.784C76.0769 398.784 76.7682 398.739 77.3802 398.648C77.9922 398.557 78.5362 398.455 79.0122 398.342C79.4882 398.206 79.9075 398.059 80.2702 397.9C80.6329 397.741 80.9615 397.594 81.2562 397.458L82.7182 401.708C81.9702 402.161 80.9162 402.569 79.5562 402.932C78.1962 403.295 76.6209 403.476 74.8302 403.476ZM89.7238 391.202C89.7238 392.358 89.8598 393.401 90.1318 394.33C90.4265 395.259 90.8345 396.064 91.3558 396.744C91.8998 397.401 92.5571 397.911 93.3278 398.274C94.0985 398.637 94.9825 398.818 95.9798 398.818C96.9545 398.818 97.8271 398.637 98.5978 398.274C99.3911 397.911 100.048 397.401 100.57 396.744C101.114 396.064 101.522 395.259 101.794 394.33C102.088 393.401 102.236 392.358 102.236 391.202C102.236 390.046 102.088 389.003 101.794 388.074C101.522 387.122 101.114 386.317 100.57 385.66C100.048 384.98 99.3911 384.459 98.5978 384.096C97.8271 383.733 96.9545 383.552 95.9798 383.552C94.9825 383.552 94.0985 383.745 93.3278 384.13C92.5571 384.493 91.8998 385.014 91.3558 385.694C90.8345 386.351 90.4265 387.156 90.1318 388.108C89.8598 389.037 89.7238 390.069 89.7238 391.202ZM107.71 391.202C107.71 393.219 107.404 394.999 106.792 396.54C106.202 398.059 105.386 399.339 104.344 400.382C103.301 401.402 102.054 402.173 100.604 402.694C99.1758 403.215 97.6345 403.476 95.9798 403.476C94.3705 403.476 92.8518 403.215 91.4238 402.694C89.9958 402.173 88.7491 401.402 87.6838 400.382C86.6185 399.339 85.7798 398.059 85.1678 396.54C84.5558 394.999 84.2498 393.219 84.2498 391.202C84.2498 389.185 84.5671 387.417 85.2018 385.898C85.8365 384.357 86.6865 383.065 87.7518 382.022C88.8398 380.979 90.0865 380.197 91.4918 379.676C92.9198 379.155 94.4158 378.894 95.9798 378.894C97.5891 378.894 99.1078 379.155 100.536 379.676C101.964 380.197 103.21 380.979 104.276 382.022C105.341 383.065 106.18 384.357 106.792 385.898C107.404 387.417 107.71 389.185 107.71 391.202ZM118.387 379.438C118.795 380.186 119.26 381.115 119.781 382.226C120.325 383.314 120.88 384.504 121.447 385.796C122.036 387.065 122.614 388.369 123.181 389.706C123.748 391.043 124.28 392.301 124.779 393.48C125.278 392.301 125.81 391.043 126.377 389.706C126.944 388.369 127.51 387.065 128.077 385.796C128.666 384.504 129.222 383.314 129.743 382.226C130.287 381.115 130.763 380.186 131.171 379.438H135.999C136.226 381.002 136.43 382.759 136.611 384.708C136.815 386.635 136.985 388.652 137.121 390.76C137.28 392.845 137.416 394.942 137.529 397.05C137.665 399.158 137.778 401.141 137.869 403H132.701C132.633 400.711 132.542 398.217 132.429 395.52C132.316 392.823 132.146 390.103 131.919 387.36C131.511 388.312 131.058 389.366 130.559 390.522C130.06 391.678 129.562 392.834 129.063 393.99C128.587 395.146 128.122 396.257 127.669 397.322C127.216 398.365 126.83 399.26 126.513 400.008H122.807C122.49 399.26 122.104 398.365 121.651 397.322C121.198 396.257 120.722 395.146 120.223 393.99C119.747 392.834 119.26 391.678 118.761 390.522C118.262 389.366 117.809 388.312 117.401 387.36C117.174 390.103 117.004 392.823 116.891 395.52C116.778 398.217 116.687 400.711 116.619 403H111.451C111.542 401.141 111.644 399.158 111.757 397.05C111.893 394.942 112.029 392.845 112.165 390.76C112.324 388.652 112.494 386.635 112.675 384.708C112.879 382.759 113.094 381.002 113.321 379.438H118.387ZM142.645 379.438H147.949V403H142.645V379.438ZM169.213 403C167.694 400.303 166.051 397.639 164.283 395.01C162.515 392.381 160.633 389.899 158.639 387.564V403H153.403V379.438H157.721C158.469 380.186 159.296 381.104 160.203 382.192C161.109 383.28 162.027 384.447 162.957 385.694C163.909 386.918 164.849 388.199 165.779 389.536C166.708 390.851 167.581 392.12 168.397 393.344V379.438H173.667V403H169.213ZM190.594 383.518C188.123 383.518 186.333 384.209 185.222 385.592C184.134 386.952 183.59 388.822 183.59 391.202C183.59 392.358 183.726 393.412 183.998 394.364C184.27 395.293 184.678 396.098 185.222 396.778C185.766 397.458 186.446 397.991 187.262 398.376C188.078 398.739 189.03 398.92 190.118 398.92C190.707 398.92 191.206 398.909 191.614 398.886C192.045 398.863 192.419 398.818 192.736 398.75V390.556H198.04V402.218C197.405 402.467 196.385 402.728 194.98 403C193.575 403.295 191.841 403.442 189.778 403.442C188.01 403.442 186.401 403.17 184.95 402.626C183.522 402.082 182.298 401.289 181.278 400.246C180.258 399.203 179.465 397.923 178.898 396.404C178.354 394.885 178.082 393.151 178.082 391.202C178.082 389.23 178.388 387.485 179 385.966C179.612 384.447 180.451 383.167 181.516 382.124C182.581 381.059 183.828 380.254 185.256 379.71C186.707 379.166 188.248 378.894 189.88 378.894C190.991 378.894 191.988 378.973 192.872 379.132C193.779 379.268 194.549 379.438 195.184 379.642C195.841 379.823 196.374 380.016 196.782 380.22C197.213 380.424 197.519 380.583 197.7 380.696L196.17 384.946C195.445 384.561 194.606 384.232 193.654 383.96C192.725 383.665 191.705 383.518 190.594 383.518ZM217.569 398.954C218.317 398.954 218.929 398.897 219.405 398.784C219.904 398.648 220.3 398.478 220.595 398.274C220.89 398.047 221.094 397.787 221.207 397.492C221.32 397.197 221.377 396.869 221.377 396.506C221.377 395.735 221.014 395.101 220.289 394.602C219.564 394.081 218.317 393.525 216.549 392.936C215.778 392.664 215.008 392.358 214.237 392.018C213.466 391.655 212.775 391.213 212.163 390.692C211.551 390.148 211.052 389.502 210.667 388.754C210.282 387.983 210.089 387.054 210.089 385.966C210.089 384.878 210.293 383.903 210.701 383.042C211.109 382.158 211.687 381.41 212.435 380.798C213.183 380.186 214.09 379.721 215.155 379.404C216.22 379.064 217.422 378.894 218.759 378.894C220.346 378.894 221.717 379.064 222.873 379.404C224.029 379.744 224.981 380.118 225.729 380.526L224.199 384.708C223.542 384.368 222.805 384.073 221.989 383.824C221.196 383.552 220.232 383.416 219.099 383.416C217.83 383.416 216.912 383.597 216.345 383.96C215.801 384.3 215.529 384.833 215.529 385.558C215.529 385.989 215.631 386.351 215.835 386.646C216.039 386.941 216.322 387.213 216.685 387.462C217.07 387.689 217.501 387.904 217.977 388.108C218.476 388.289 219.02 388.482 219.609 388.686C220.833 389.139 221.898 389.593 222.805 390.046C223.712 390.477 224.46 390.987 225.049 391.576C225.661 392.165 226.114 392.857 226.409 393.65C226.704 394.443 226.851 395.407 226.851 396.54C226.851 398.739 226.08 400.45 224.539 401.674C222.998 402.875 220.674 403.476 217.569 403.476C216.526 403.476 215.586 403.408 214.747 403.272C213.908 403.159 213.16 403.011 212.503 402.83C211.868 402.649 211.313 402.456 210.837 402.252C210.384 402.048 209.998 401.855 209.681 401.674L211.177 397.458C211.88 397.843 212.741 398.195 213.761 398.512C214.804 398.807 216.073 398.954 217.569 398.954ZM235.386 391.202C235.386 392.358 235.522 393.401 235.794 394.33C236.089 395.259 236.497 396.064 237.018 396.744C237.562 397.401 238.219 397.911 238.99 398.274C239.761 398.637 240.645 398.818 241.642 398.818C242.617 398.818 243.489 398.637 244.26 398.274C245.053 397.911 245.711 397.401 246.232 396.744C246.776 396.064 247.184 395.259 247.456 394.33C247.751 393.401 247.898 392.358 247.898 391.202C247.898 390.046 247.751 389.003 247.456 388.074C247.184 387.122 246.776 386.317 246.232 385.66C245.711 384.98 245.053 384.459 244.26 384.096C243.489 383.733 242.617 383.552 241.642 383.552C240.645 383.552 239.761 383.745 238.99 384.13C238.219 384.493 237.562 385.014 237.018 385.694C236.497 386.351 236.089 387.156 235.794 388.108C235.522 389.037 235.386 390.069 235.386 391.202ZM253.372 391.202C253.372 393.219 253.066 394.999 252.454 396.54C251.865 398.059 251.049 399.339 250.006 400.382C248.963 401.402 247.717 402.173 246.266 402.694C244.838 403.215 243.297 403.476 241.642 403.476C240.033 403.476 238.514 403.215 237.086 402.694C235.658 402.173 234.411 401.402 233.346 400.382C232.281 399.339 231.442 398.059 230.83 396.54C230.218 394.999 229.912 393.219 229.912 391.202C229.912 389.185 230.229 387.417 230.864 385.898C231.499 384.357 232.349 383.065 233.414 382.022C234.502 380.979 235.749 380.197 237.154 379.676C238.582 379.155 240.078 378.894 241.642 378.894C243.251 378.894 244.77 379.155 246.198 379.676C247.626 380.197 248.873 380.979 249.938 382.022C251.003 383.065 251.842 384.357 252.454 385.898C253.066 387.417 253.372 389.185 253.372 391.202ZM262.247 391.202C262.247 392.358 262.383 393.401 262.655 394.33C262.95 395.259 263.358 396.064 263.879 396.744C264.423 397.401 265.081 397.911 265.851 398.274C266.622 398.637 267.506 398.818 268.503 398.818C269.478 398.818 270.351 398.637 271.121 398.274C271.915 397.911 272.572 397.401 273.093 396.744C273.637 396.064 274.045 395.259 274.317 394.33C274.612 393.401 274.759 392.358 274.759 391.202C274.759 390.046 274.612 389.003 274.317 388.074C274.045 387.122 273.637 386.317 273.093 385.66C272.572 384.98 271.915 384.459 271.121 384.096C270.351 383.733 269.478 383.552 268.503 383.552C267.506 383.552 266.622 383.745 265.851 384.13C265.081 384.493 264.423 385.014 263.879 385.694C263.358 386.351 262.95 387.156 262.655 388.108C262.383 389.037 262.247 390.069 262.247 391.202ZM280.233 391.202C280.233 393.219 279.927 394.999 279.315 396.54C278.726 398.059 277.91 399.339 276.867 400.382C275.825 401.402 274.578 402.173 273.127 402.694C271.699 403.215 270.158 403.476 268.503 403.476C266.894 403.476 265.375 403.215 263.947 402.694C262.519 402.173 261.273 401.402 260.207 400.382C259.142 399.339 258.303 398.059 257.691 396.54C257.079 394.999 256.773 393.219 256.773 391.202C256.773 389.185 257.091 387.417 257.725 385.898C258.36 384.357 259.21 383.065 260.275 382.022C261.363 380.979 262.61 380.197 264.015 379.676C265.443 379.155 266.939 378.894 268.503 378.894C270.113 378.894 271.631 379.155 273.059 379.676C274.487 380.197 275.734 380.979 276.799 382.022C277.865 383.065 278.703 384.357 279.315 385.898C279.927 387.417 280.233 389.185 280.233 391.202ZM300.465 403C298.946 400.303 297.303 397.639 295.535 395.01C293.767 392.381 291.885 389.899 289.891 387.564V403H284.655V379.438H288.973C289.721 380.186 290.548 381.104 291.455 382.192C292.361 383.28 293.279 384.447 294.209 385.694C295.161 386.918 296.101 388.199 297.031 389.536C297.96 390.851 298.833 392.12 299.649 393.344V379.438H304.919V403H300.465Z" fill="#FFFEFE"/>
<g filter="url(#filter1_d_11_123)">
<path d="M62.9712 267.171H67.8312L68.8812 261.681H71.4012L70.3512 267.171H72.9912V269.391H69.9012L68.8812 274.761H72.9912V276.981H68.4612L67.4112 282.471H64.8912L65.9412 276.981H61.0812L60.0312 282.471H57.5112L58.5612 276.981H55.9212V274.761H58.9812L60.0012 269.391H55.9212V267.171H60.4512L61.5012 261.681H64.0212L62.9712 267.171ZM61.5012 274.761H66.3612L67.4112 269.391H62.5512L61.5012 274.761ZM86.3709 279.591C86.1709 279.111 85.9009 278.501 85.5609 277.761C85.2409 277.021 84.8909 276.221 84.5109 275.361C84.1309 274.501 83.7209 273.621 83.2809 272.721C82.8609 271.801 82.4609 270.941 82.0809 270.141C81.7009 269.321 81.3409 268.591 81.0009 267.951C80.6809 267.311 80.4209 266.821 80.2209 266.481C80.0009 268.841 79.8209 271.401 79.6809 274.161C79.5409 276.901 79.4209 279.671 79.3209 282.471H76.4709C76.5509 280.671 76.6409 278.861 76.7409 277.041C76.8409 275.201 76.9509 273.401 77.0709 271.641C77.2109 269.861 77.3509 268.131 77.4909 266.451C77.6509 264.771 77.8209 263.181 78.0009 261.681H80.5509C81.0909 262.561 81.6709 263.601 82.2909 264.801C82.9109 266.001 83.5309 267.261 84.1509 268.581C84.7709 269.881 85.3709 271.191 85.9509 272.511C86.5309 273.811 87.0609 275.001 87.5409 276.081C88.0209 275.001 88.5509 273.811 89.1309 272.511C89.7109 271.191 90.3109 269.881 90.9309 268.581C91.5509 267.261 92.1709 266.001 92.7909 264.801C93.4109 263.601 93.9909 262.561 94.5309 261.681H97.0809C97.7609 268.381 98.2709 275.311 98.6109 282.471H95.7609C95.6609 279.671 95.5409 276.901 95.4009 274.161C95.2609 271.401 95.0809 268.841 94.8609 266.481C94.6609 266.821 94.3909 267.311 94.0509 267.951C93.7309 268.591 93.3809 269.321 93.0009 270.141C92.6209 270.941 92.2109 271.801 91.7709 272.721C91.3509 273.621 90.9509 274.501 90.5709 275.361C90.1909 276.221 89.8309 277.021 89.4909 277.761C89.1709 278.501 88.9109 279.111 88.7109 279.591H86.3709ZM108.274 280.461C108.934 280.461 109.514 280.451 110.014 280.431C110.534 280.391 110.964 280.331 111.304 280.251V275.601C111.104 275.501 110.774 275.421 110.314 275.361C109.874 275.281 109.334 275.241 108.694 275.241C108.274 275.241 107.824 275.271 107.344 275.331C106.884 275.391 106.454 275.521 106.054 275.721C105.674 275.901 105.354 276.161 105.094 276.501C104.834 276.821 104.704 277.251 104.704 277.791C104.704 278.791 105.024 279.491 105.664 279.891C106.304 280.271 107.174 280.461 108.274 280.461ZM108.034 266.481C109.154 266.481 110.094 266.631 110.854 266.931C111.634 267.211 112.254 267.621 112.714 268.161C113.194 268.681 113.534 269.311 113.734 270.051C113.934 270.771 114.034 271.571 114.034 272.451V282.201C113.794 282.241 113.454 282.301 113.014 282.381C112.594 282.441 112.114 282.501 111.574 282.561C111.034 282.621 110.444 282.671 109.804 282.711C109.184 282.771 108.564 282.801 107.944 282.801C107.064 282.801 106.254 282.711 105.514 282.531C104.774 282.351 104.134 282.071 103.594 281.691C103.054 281.291 102.634 280.771 102.334 280.131C102.034 279.491 101.884 278.721 101.884 277.821C101.884 276.961 102.054 276.221 102.394 275.601C102.754 274.981 103.234 274.481 103.834 274.101C104.434 273.721 105.134 273.441 105.934 273.261C106.734 273.081 107.574 272.991 108.454 272.991C108.734 272.991 109.024 273.011 109.324 273.051C109.624 273.071 109.904 273.111 110.164 273.171C110.444 273.211 110.684 273.251 110.884 273.291C111.084 273.331 111.224 273.361 111.304 273.381V272.601C111.304 272.141 111.254 271.691 111.154 271.251C111.054 270.791 110.874 270.391 110.614 270.051C110.354 269.691 109.994 269.411 109.534 269.211C109.094 268.991 108.514 268.881 107.794 268.881C106.874 268.881 106.064 268.951 105.364 269.091C104.684 269.211 104.174 269.341 103.834 269.481L103.504 267.171C103.864 267.011 104.464 266.861 105.304 266.721C106.144 266.561 107.054 266.481 108.034 266.481ZM124.428 266.541C124.668 266.541 124.938 266.561 125.238 266.601C125.558 266.621 125.868 266.661 126.168 266.721C126.468 266.761 126.738 266.811 126.978 266.871C127.238 266.911 127.428 266.951 127.548 266.991L127.068 269.421C126.848 269.341 126.478 269.251 125.958 269.151C125.458 269.031 124.808 268.971 124.008 268.971C123.488 268.971 122.968 269.031 122.448 269.151C121.948 269.251 121.618 269.321 121.458 269.361V282.471H118.668V267.531C119.328 267.291 120.148 267.071 121.128 266.871C122.108 266.651 123.208 266.541 124.428 266.541ZM135.88 273.891C136.48 274.351 137.11 274.921 137.77 275.601C138.45 276.281 139.11 277.021 139.75 277.821C140.41 278.601 141.03 279.401 141.61 280.221C142.19 281.021 142.68 281.771 143.08 282.471H139.81C139.39 281.771 138.9 281.061 138.34 280.341C137.8 279.601 137.23 278.901 136.63 278.241C136.03 277.561 135.42 276.941 134.8 276.381C134.18 275.821 133.59 275.351 133.03 274.971V282.471H130.24V259.671L133.03 259.191V273.411C133.51 272.931 134.04 272.401 134.62 271.821C135.2 271.241 135.77 270.651 136.33 270.051C136.89 269.451 137.42 268.881 137.92 268.341C138.42 267.781 138.85 267.291 139.21 266.871H142.48C142.02 267.371 141.52 267.921 140.98 268.521C140.44 269.121 139.88 269.731 139.3 270.351C138.72 270.951 138.13 271.561 137.53 272.181C136.95 272.781 136.4 273.351 135.88 273.891ZM144.253 274.701C144.253 273.321 144.453 272.121 144.853 271.101C145.253 270.061 145.783 269.201 146.443 268.521C147.103 267.841 147.863 267.331 148.723 266.991C149.583 266.651 150.463 266.481 151.363 266.481C153.463 266.481 155.073 267.141 156.193 268.461C157.313 269.761 157.873 271.751 157.873 274.431C157.873 274.551 157.873 274.711 157.873 274.911C157.873 275.091 157.863 275.261 157.843 275.421H147.163C147.283 277.041 147.753 278.271 148.573 279.111C149.393 279.951 150.673 280.371 152.413 280.371C153.393 280.371 154.213 280.291 154.873 280.131C155.553 279.951 156.063 279.781 156.403 279.621L156.793 281.961C156.453 282.141 155.853 282.331 154.993 282.531C154.153 282.731 153.193 282.831 152.113 282.831C150.753 282.831 149.573 282.631 148.573 282.231C147.593 281.811 146.783 281.241 146.143 280.521C145.503 279.801 145.023 278.951 144.703 277.971C144.403 276.971 144.253 275.881 144.253 274.701ZM154.963 273.171C154.983 271.911 154.663 270.881 154.003 270.081C153.363 269.261 152.473 268.851 151.333 268.851C150.693 268.851 150.123 268.981 149.623 269.241C149.143 269.481 148.733 269.801 148.393 270.201C148.053 270.601 147.783 271.061 147.583 271.581C147.403 272.101 147.283 272.631 147.223 273.171H154.963ZM164.49 266.871H170.4V269.211H164.49V276.411C164.49 277.191 164.55 277.841 164.67 278.361C164.79 278.861 164.97 279.261 165.21 279.561C165.45 279.841 165.75 280.041 166.11 280.161C166.47 280.281 166.89 280.341 167.37 280.341C168.21 280.341 168.88 280.251 169.38 280.071C169.9 279.871 170.26 279.731 170.46 279.651L171 281.961C170.72 282.101 170.23 282.271 169.53 282.471C168.83 282.691 168.03 282.801 167.13 282.801C166.07 282.801 165.19 282.671 164.49 282.411C163.81 282.131 163.26 281.721 162.84 281.181C162.42 280.641 162.12 279.981 161.94 279.201C161.78 278.401 161.7 277.481 161.7 276.441V262.521L164.49 262.041V266.871ZM179.651 261.471C182.571 261.471 184.811 262.031 186.371 263.151C187.951 264.251 188.741 265.901 188.741 268.101C188.741 269.301 188.521 270.331 188.081 271.191C187.661 272.031 187.041 272.721 186.221 273.261C185.421 273.781 184.441 274.161 183.281 274.401C182.121 274.641 180.811 274.761 179.351 274.761H177.041V282.471H174.131V261.981C174.951 261.781 175.861 261.651 176.861 261.591C177.881 261.511 178.811 261.471 179.651 261.471ZM179.891 264.021C178.651 264.021 177.701 264.051 177.041 264.111V272.271H179.231C180.231 272.271 181.131 272.211 181.931 272.091C182.731 271.951 183.401 271.731 183.941 271.431C184.501 271.111 184.931 270.681 185.231 270.141C185.531 269.601 185.681 268.911 185.681 268.071C185.681 267.271 185.521 266.611 185.201 266.091C184.901 265.571 184.481 265.161 183.941 264.861C183.421 264.541 182.811 264.321 182.111 264.201C181.411 264.081 180.671 264.021 179.891 264.021ZM205.973 274.671C205.973 275.911 205.793 277.031 205.433 278.031C205.073 279.031 204.563 279.891 203.903 280.611C203.263 281.331 202.493 281.891 201.593 282.291C200.693 282.671 199.713 282.861 198.653 282.861C197.593 282.861 196.613 282.671 195.713 282.291C194.813 281.891 194.033 281.331 193.373 280.611C192.733 279.891 192.233 279.031 191.873 278.031C191.513 277.031 191.333 275.911 191.333 274.671C191.333 273.451 191.513 272.341 191.873 271.341C192.233 270.321 192.733 269.451 193.373 268.731C194.033 268.011 194.813 267.461 195.713 267.081C196.613 266.681 197.593 266.481 198.653 266.481C199.713 266.481 200.693 266.681 201.593 267.081C202.493 267.461 203.263 268.011 203.903 268.731C204.563 269.451 205.073 270.321 205.433 271.341C205.793 272.341 205.973 273.451 205.973 274.671ZM203.063 274.671C203.063 272.911 202.663 271.521 201.863 270.501C201.083 269.461 200.013 268.941 198.653 268.941C197.293 268.941 196.213 269.461 195.413 270.501C194.633 271.521 194.243 272.911 194.243 274.671C194.243 276.431 194.633 277.831 195.413 278.871C196.213 279.891 197.293 280.401 198.653 280.401C200.013 280.401 201.083 279.891 201.863 278.871C202.663 277.831 203.063 276.431 203.063 274.671ZM216.678 282.831C215.418 282.831 214.308 282.631 213.348 282.231C212.408 281.831 211.608 281.271 210.948 280.551C210.308 279.831 209.828 278.981 209.508 278.001C209.188 277.001 209.028 275.901 209.028 274.701C209.028 273.501 209.198 272.401 209.538 271.401C209.898 270.401 210.398 269.541 211.038 268.821C211.678 268.081 212.458 267.511 213.378 267.111C214.318 266.691 215.358 266.481 216.498 266.481C217.198 266.481 217.898 266.541 218.598 266.661C219.298 266.781 219.968 266.971 220.608 267.231L219.978 269.601C219.558 269.401 219.068 269.241 218.508 269.121C217.968 269.001 217.388 268.941 216.768 268.941C215.208 268.941 214.008 269.431 213.168 270.411C212.348 271.391 211.938 272.821 211.938 274.701C211.938 275.541 212.028 276.311 212.208 277.011C212.408 277.711 212.708 278.311 213.108 278.811C213.528 279.311 214.058 279.701 214.698 279.981C215.338 280.241 216.118 280.371 217.038 280.371C217.778 280.371 218.448 280.301 219.048 280.161C219.648 280.021 220.118 279.871 220.458 279.711L220.848 282.051C220.688 282.151 220.458 282.251 220.158 282.351C219.858 282.431 219.518 282.501 219.138 282.561C218.758 282.641 218.348 282.701 217.908 282.741C217.488 282.801 217.078 282.831 216.678 282.831ZM229.483 273.891C230.083 274.351 230.713 274.921 231.373 275.601C232.053 276.281 232.713 277.021 233.353 277.821C234.013 278.601 234.633 279.401 235.213 280.221C235.793 281.021 236.283 281.771 236.683 282.471H233.413C232.993 281.771 232.503 281.061 231.943 280.341C231.403 279.601 230.833 278.901 230.233 278.241C229.633 277.561 229.023 276.941 228.403 276.381C227.783 275.821 227.193 275.351 226.633 274.971V282.471H223.843V259.671L226.633 259.191V273.411C227.113 272.931 227.643 272.401 228.223 271.821C228.803 271.241 229.373 270.651 229.933 270.051C230.493 269.451 231.023 268.881 231.523 268.341C232.023 267.781 232.453 267.291 232.813 266.871H236.083C235.623 267.371 235.123 267.921 234.583 268.521C234.043 269.121 233.483 269.731 232.903 270.351C232.323 270.951 231.733 271.561 231.133 272.181C230.553 272.781 230.003 273.351 229.483 273.891ZM237.856 274.701C237.856 273.321 238.056 272.121 238.456 271.101C238.856 270.061 239.386 269.201 240.046 268.521C240.706 267.841 241.466 267.331 242.326 266.991C243.186 266.651 244.066 266.481 244.966 266.481C247.066 266.481 248.676 267.141 249.796 268.461C250.916 269.761 251.476 271.751 251.476 274.431C251.476 274.551 251.476 274.711 251.476 274.911C251.476 275.091 251.466 275.261 251.446 275.421H240.766C240.886 277.041 241.356 278.271 242.176 279.111C242.996 279.951 244.276 280.371 246.016 280.371C246.996 280.371 247.816 280.291 248.476 280.131C249.156 279.951 249.666 279.781 250.006 279.621L250.396 281.961C250.056 282.141 249.456 282.331 248.596 282.531C247.756 282.731 246.796 282.831 245.716 282.831C244.356 282.831 243.176 282.631 242.176 282.231C241.196 281.811 240.386 281.241 239.746 280.521C239.106 279.801 238.626 278.951 238.306 277.971C238.006 276.971 237.856 275.881 237.856 274.701ZM248.566 273.171C248.586 271.911 248.266 270.881 247.606 270.081C246.966 269.261 246.076 268.851 244.936 268.851C244.296 268.851 243.726 268.981 243.226 269.241C242.746 269.481 242.336 269.801 241.996 270.201C241.656 270.601 241.386 271.061 241.186 271.581C241.006 272.101 240.886 272.631 240.826 273.171H248.566ZM258.094 266.871H264.004V269.211H258.094V276.411C258.094 277.191 258.154 277.841 258.274 278.361C258.394 278.861 258.574 279.261 258.814 279.561C259.054 279.841 259.354 280.041 259.714 280.161C260.074 280.281 260.494 280.341 260.974 280.341C261.814 280.341 262.484 280.251 262.984 280.071C263.504 279.871 263.864 279.731 264.064 279.651L264.604 281.961C264.324 282.101 263.834 282.271 263.134 282.471C262.434 282.691 261.634 282.801 260.734 282.801C259.674 282.801 258.794 282.671 258.094 282.411C257.414 282.131 256.864 281.721 256.444 281.181C256.024 280.641 255.724 279.981 255.544 279.201C255.384 278.401 255.304 277.481 255.304 276.441V262.521L258.094 262.041V266.871ZM277.064 279.591C276.864 279.111 276.594 278.501 276.254 277.761C275.934 277.021 275.584 276.221 275.204 275.361C274.824 274.501 274.414 273.621 273.974 272.721C273.554 271.801 273.154 270.941 272.774 270.141C272.394 269.321 272.034 268.591 271.694 267.951C271.374 267.311 271.114 266.821 270.914 266.481C270.694 268.841 270.514 271.401 270.374 274.161C270.234 276.901 270.114 279.671 270.014 282.471H267.164C267.244 280.671 267.334 278.861 267.434 277.041C267.534 275.201 267.644 273.401 267.764 271.641C267.904 269.861 268.044 268.131 268.184 266.451C268.344 264.771 268.514 263.181 268.694 261.681H271.244C271.784 262.561 272.364 263.601 272.984 264.801C273.604 266.001 274.224 267.261 274.844 268.581C275.464 269.881 276.064 271.191 276.644 272.511C277.224 273.811 277.754 275.001 278.234 276.081C278.714 275.001 279.244 273.811 279.824 272.511C280.404 271.191 281.004 269.881 281.624 268.581C282.244 267.261 282.864 266.001 283.484 264.801C284.104 263.601 284.684 262.561 285.224 261.681H287.774C288.454 268.381 288.964 275.311 289.304 282.471H286.454C286.354 279.671 286.234 276.901 286.094 274.161C285.954 271.401 285.774 268.841 285.554 266.481C285.354 266.821 285.084 267.311 284.744 267.951C284.424 268.591 284.074 269.321 283.694 270.141C283.314 270.941 282.904 271.801 282.464 272.721C282.044 273.621 281.644 274.501 281.264 275.361C280.884 276.221 280.524 277.021 280.184 277.761C279.864 278.501 279.604 279.111 279.404 279.591H277.064ZM298.967 280.461C299.627 280.461 300.207 280.451 300.707 280.431C301.227 280.391 301.657 280.331 301.997 280.251V275.601C301.797 275.501 301.467 275.421 301.007 275.361C300.567 275.281 300.027 275.241 299.387 275.241C298.967 275.241 298.517 275.271 298.037 275.331C297.577 275.391 297.147 275.521 296.747 275.721C296.367 275.901 296.047 276.161 295.787 276.501C295.527 276.821 295.397 277.251 295.397 277.791C295.397 278.791 295.717 279.491 296.357 279.891C296.997 280.271 297.867 280.461 298.967 280.461ZM298.727 266.481C299.847 266.481 300.787 266.631 301.547 266.931C302.327 267.211 302.947 267.621 303.407 268.161C303.887 268.681 304.227 269.311 304.427 270.051C304.627 270.771 304.727 271.571 304.727 272.451V282.201C304.487 282.241 304.147 282.301 303.707 282.381C303.287 282.441 302.807 282.501 302.267 282.561C301.727 282.621 301.137 282.671 300.497 282.711C299.877 282.771 299.257 282.801 298.637 282.801C297.757 282.801 296.947 282.711 296.207 282.531C295.467 282.351 294.827 282.071 294.287 281.691C293.747 281.291 293.327 280.771 293.027 280.131C292.727 279.491 292.577 278.721 292.577 277.821C292.577 276.961 292.747 276.221 293.087 275.601C293.447 274.981 293.927 274.481 294.527 274.101C295.127 273.721 295.827 273.441 296.627 273.261C297.427 273.081 298.267 272.991 299.147 272.991C299.427 272.991 299.717 273.011 300.017 273.051C300.317 273.071 300.597 273.111 300.857 273.171C301.137 273.211 301.377 273.251 301.577 273.291C301.777 273.331 301.917 273.361 301.997 273.381V272.601C301.997 272.141 301.947 271.691 301.847 271.251C301.747 270.791 301.567 270.391 301.307 270.051C301.047 269.691 300.687 269.411 300.227 269.211C299.787 268.991 299.207 268.881 298.487 268.881C297.567 268.881 296.757 268.951 296.057 269.091C295.377 269.211 294.867 269.341 294.527 269.481L294.197 267.171C294.557 267.011 295.157 266.861 295.997 266.721C296.837 266.561 297.747 266.481 298.727 266.481ZM312.151 282.471H309.361V266.871H312.151V282.471ZM310.741 264.051C310.241 264.051 309.811 263.891 309.451 263.571C309.111 263.231 308.941 262.781 308.941 262.221C308.941 261.661 309.111 261.221 309.451 260.901C309.811 260.561 310.241 260.391 310.741 260.391C311.241 260.391 311.661 260.561 312.001 260.901C312.361 261.221 312.541 261.661 312.541 262.221C312.541 262.781 312.361 263.231 312.001 263.571C311.661 263.891 311.241 264.051 310.741 264.051Z" fill="white"/>
</g>
<defs>
<filter id="filter0_d_11_123" x="61.8899" y="74.4277" width="247.026" height="158" filterUnits="userSpaceOnUse" color-interpolation-filters="sRGB">
<feFlood flood-opacity="0" result="BackgroundImageFix"/>
<feColorMatrix in="SourceAlpha" type="matrix" values="0 0 0 0 0 0 0 0 0 0 0 0 0 0 0 0 0 0 127 0" result="hardAlpha"/>
<feOffset dy="4"/>
<feGaussianBlur stdDeviation="2"/>
<feComposite in2="hardAlpha" operator="out"/>
<feColorMatrix type="matrix" values="0 0 0 0 0 0 0 0 0 0 0 0 0 0 0 0 0 0 0.25 0"/>
<feBlend mode="normal" in2="BackgroundImageFix" result="effect1_dropShadow_11_123"/>
<feBlend mode="normal" in="SourceGraphic" in2="effect1_dropShadow_11_123" result="shape"/>
</filter>
<filter id="filter1_d_11_123" x="51.9211" y="259.191" width="264.62" height="31.67" filterUnits="userSpaceOnUse" color-interpolation-filters="sRGB">
<feFlood flood-opacity="0" result="BackgroundImageFix"/>
<feColorMatrix in="SourceAlpha" type="matrix" values="0 0 0 0 0 0 0 0 0 0 0 0 0 0 0 0 0 0 127 0" result="hardAlpha"/>
<feOffset dy="4"/>
<feGaussianBlur stdDeviation="2"/>
<feComposite in2="hardAlpha" operator="out"/>
<feColorMatrix type="matrix" values="0 0 0 0 0 0 0 0 0 0 0 0 0 0 0 0 0 0 0.25 0"/>
<feBlend mode="normal" in2="BackgroundImageFix" result="effect1_dropShadow_11_123"/>
<feBlend mode="normal" in="SourceGraphic" in2="effect1_dropShadow_11_123" result="shape"/>
</filter>
</defs>
</svg>
