<svg width="163" height="17" viewBox="0 0 163 17" fill="none" xmlns="http://www.w3.org/2000/svg">
<path d="M6.71711 16.8C5.74378 16.8 4.85711 16.64 4.05711 16.32C3.25711 16 2.57044 15.5333 1.99711 14.92C1.42378 14.3067 0.977109 13.5533 0.657109 12.66C0.350443 11.7533 0.197109 10.72 0.197109 9.56C0.197109 8.4 0.370443 7.37333 0.71711 6.48C1.07711 5.57333 1.55711 4.81333 2.15711 4.2C2.75711 3.58667 3.45711 3.12 4.25711 2.8C5.05711 2.48 5.91044 2.32 6.81711 2.32C7.39044 2.32 7.90378 2.36 8.35711 2.44C8.82378 2.52 9.22378 2.61333 9.55711 2.72C9.90378 2.82667 10.1838 2.93333 10.3971 3.04C10.6104 3.14667 10.7571 3.22667 10.8371 3.28L10.2771 4.88C10.1571 4.8 9.98378 4.71333 9.75711 4.62C9.53044 4.52667 9.27044 4.43333 8.97711 4.34C8.69711 4.24667 8.38378 4.17333 8.03711 4.12C7.70378 4.05333 7.36378 4.02 7.01711 4.02C6.28378 4.02 5.62378 4.14667 5.03711 4.4C4.45044 4.65333 3.95044 5.02 3.53711 5.5C3.12378 5.98 2.80378 6.56667 2.57711 7.26C2.36378 7.94 2.25711 8.70667 2.25711 9.56C2.25711 10.3867 2.35044 11.14 2.53711 11.82C2.73711 12.5 3.03044 13.0867 3.41711 13.58C3.80378 14.06 4.28378 14.4333 4.85711 14.7C5.44378 14.9667 6.12378 15.1 6.89711 15.1C7.79044 15.1 8.53044 15.0067 9.11711 14.82C9.70378 14.6333 10.1438 14.4667 10.4371 14.32L10.9371 15.92C10.8438 15.9867 10.6771 16.0733 10.4371 16.18C10.1971 16.2733 9.89711 16.3667 9.53711 16.46C9.17711 16.5533 8.75711 16.6333 8.27711 16.7C7.79711 16.7667 7.27711 16.8 6.71711 16.8ZM16.1595 16.7C15.0128 16.6733 14.1995 16.4267 13.7195 15.96C13.2395 15.4933 12.9995 14.7667 12.9995 13.78V1.3L14.8595 0.98V13.48C14.8595 13.7867 14.8861 14.04 14.9395 14.24C14.9928 14.44 15.0795 14.6 15.1995 14.72C15.3195 14.84 15.4795 14.9333 15.6795 15C15.8795 15.0533 16.1261 15.1 16.4195 15.14L16.1595 16.7ZM27.6882 11.3C27.6882 12.1267 27.5682 12.8733 27.3282 13.54C27.0882 14.2067 26.7482 14.78 26.3082 15.26C25.8815 15.74 25.3682 16.1133 24.7682 16.38C24.1682 16.6333 23.5149 16.76 22.8082 16.76C22.1015 16.76 21.4482 16.6333 20.8482 16.38C20.2482 16.1133 19.7282 15.74 19.2882 15.26C18.8615 14.78 18.5282 14.2067 18.2882 13.54C18.0482 12.8733 17.9282 12.1267 17.9282 11.3C17.9282 10.4867 18.0482 9.74667 18.2882 9.08C18.5282 8.4 18.8615 7.82 19.2882 7.34C19.7282 6.86 20.2482 6.49333 20.8482 6.24C21.4482 5.97333 22.1015 5.84 22.8082 5.84C23.5149 5.84 24.1682 5.97333 24.7682 6.24C25.3682 6.49333 25.8815 6.86 26.3082 7.34C26.7482 7.82 27.0882 8.4 27.3282 9.08C27.5682 9.74667 27.6882 10.4867 27.6882 11.3ZM25.7482 11.3C25.7482 10.1267 25.4815 9.2 24.9482 8.52C24.4282 7.82667 23.7149 7.48 22.8082 7.48C21.9015 7.48 21.1815 7.82667 20.6482 8.52C20.1282 9.2 19.8682 10.1267 19.8682 11.3C19.8682 12.4733 20.1282 13.4067 20.6482 14.1C21.1815 14.78 21.9015 15.12 22.8082 15.12C23.7149 15.12 24.4282 14.78 24.9482 14.1C25.4815 13.4067 25.7482 12.4733 25.7482 11.3ZM32.7251 15.16C33.4851 15.16 34.0451 15.06 34.4051 14.86C34.7784 14.66 34.9651 14.34 34.9651 13.9C34.9651 13.4467 34.7851 13.0867 34.4251 12.82C34.0651 12.5533 33.4717 12.2533 32.6451 11.92C32.2451 11.76 31.8584 11.6 31.4851 11.44C31.1251 11.2667 30.8117 11.0667 30.5451 10.84C30.2784 10.6133 30.0651 10.34 29.9051 10.02C29.7451 9.7 29.6651 9.30667 29.6651 8.84C29.6651 7.92 30.0051 7.19333 30.6851 6.66C31.3651 6.11333 32.2917 5.84 33.4651 5.84C33.7584 5.84 34.0517 5.86 34.3451 5.9C34.6384 5.92667 34.9117 5.96667 35.1651 6.02C35.4184 6.06 35.6384 6.10667 35.8251 6.16C36.0251 6.21333 36.1784 6.26 36.2851 6.3L35.9451 7.9C35.7451 7.79333 35.4317 7.68667 35.0051 7.58C34.5784 7.46 34.0651 7.4 33.4651 7.4C32.9451 7.4 32.4917 7.50667 32.1051 7.72C31.7184 7.92 31.5251 8.24 31.5251 8.68C31.5251 8.90667 31.5651 9.10667 31.6451 9.28C31.7384 9.45333 31.8717 9.61333 32.0451 9.76C32.2317 9.89333 32.4584 10.02 32.7251 10.14C32.9917 10.26 33.3117 10.3867 33.6851 10.52C34.1784 10.7067 34.6184 10.8933 35.0051 11.08C35.3917 11.2533 35.7184 11.46 35.9851 11.7C36.2651 11.94 36.4784 12.2333 36.6251 12.58C36.7717 12.9133 36.8451 13.3267 36.8451 13.82C36.8451 14.78 36.4851 15.5067 35.7651 16C35.0584 16.4933 34.0451 16.74 32.7251 16.74C31.8051 16.74 31.0851 16.66 30.5651 16.5C30.0451 16.3533 29.6917 16.24 29.5051 16.16L29.8451 14.56C30.0584 14.64 30.3984 14.76 30.8651 14.92C31.3317 15.08 31.9517 15.16 32.7251 15.16ZM38.6509 11.32C38.6509 10.4 38.7842 9.6 39.0509 8.92C39.3175 8.22667 39.6709 7.65333 40.1109 7.2C40.5509 6.74667 41.0575 6.40667 41.6309 6.18C42.2042 5.95333 42.7909 5.84 43.3909 5.84C44.7909 5.84 45.8642 6.28 46.6109 7.16C47.3575 8.02667 47.7309 9.35333 47.7309 11.14C47.7309 11.22 47.7309 11.3267 47.7309 11.46C47.7309 11.58 47.7242 11.6933 47.7109 11.8H40.5909C40.6709 12.88 40.9842 13.7 41.5309 14.26C42.0775 14.82 42.9309 15.1 44.0909 15.1C44.7442 15.1 45.2909 15.0467 45.7309 14.94C46.1842 14.82 46.5242 14.7067 46.7509 14.6L47.0109 16.16C46.7842 16.28 46.3842 16.4067 45.8109 16.54C45.2509 16.6733 44.6109 16.74 43.8909 16.74C42.9842 16.74 42.1975 16.6067 41.5309 16.34C40.8775 16.06 40.3375 15.68 39.9109 15.2C39.4842 14.72 39.1642 14.1533 38.9509 13.5C38.7509 12.8333 38.6509 12.1067 38.6509 11.32ZM45.7909 10.3C45.8042 9.46 45.5909 8.77333 45.1509 8.24C44.7242 7.69333 44.1309 7.42 43.3709 7.42C42.9442 7.42 42.5642 7.50667 42.2309 7.68C41.9109 7.84 41.6375 8.05333 41.4109 8.32C41.1842 8.58667 41.0042 8.89333 40.8709 9.24C40.7509 9.58667 40.6709 9.94 40.6309 10.3H45.7909ZM59.0916 0.98C59.6383 0.98 60.105 1.02 60.4916 1.1C60.8916 1.18 61.1716 1.25333 61.3316 1.32L60.9916 2.92C60.8316 2.84 60.605 2.76667 60.3116 2.7C60.0183 2.62 59.6583 2.58 59.2316 2.58C58.365 2.58 57.7583 2.82 57.4116 3.3C57.065 3.76667 56.8916 4.4 56.8916 5.2V6.1H60.8916V7.66H56.8916V16.5H55.0316V5.16C55.0316 3.82667 55.3583 2.8 56.0116 2.08C56.665 1.34667 57.6916 0.98 59.0916 0.98ZM71.9265 11.3C71.9265 12.1267 71.8065 12.8733 71.5665 13.54C71.3265 14.2067 70.9865 14.78 70.5465 15.26C70.1198 15.74 69.6065 16.1133 69.0065 16.38C68.4065 16.6333 67.7532 16.76 67.0465 16.76C66.3398 16.76 65.6865 16.6333 65.0865 16.38C64.4865 16.1133 63.9665 15.74 63.5265 15.26C63.0998 14.78 62.7665 14.2067 62.5265 13.54C62.2865 12.8733 62.1665 12.1267 62.1665 11.3C62.1665 10.4867 62.2865 9.74667 62.5265 9.08C62.7665 8.4 63.0998 7.82 63.5265 7.34C63.9665 6.86 64.4865 6.49333 65.0865 6.24C65.6865 5.97333 66.3398 5.84 67.0465 5.84C67.7532 5.84 68.4065 5.97333 69.0065 6.24C69.6065 6.49333 70.1198 6.86 70.5465 7.34C70.9865 7.82 71.3265 8.4 71.5665 9.08C71.8065 9.74667 71.9265 10.4867 71.9265 11.3ZM69.9865 11.3C69.9865 10.1267 69.7198 9.2 69.1865 8.52C68.6665 7.82667 67.9532 7.48 67.0465 7.48C66.1398 7.48 65.4198 7.82667 64.8865 8.52C64.3665 9.2 64.1065 10.1267 64.1065 11.3C64.1065 12.4733 64.3665 13.4067 64.8865 14.1C65.4198 14.78 66.1398 15.12 67.0465 15.12C67.9532 15.12 68.6665 14.78 69.1865 14.1C69.7198 13.4067 69.9865 12.4733 69.9865 11.3ZM78.3834 5.88C78.5434 5.88 78.7234 5.89333 78.9234 5.92C79.1367 5.93333 79.3434 5.96 79.5434 6C79.7434 6.02667 79.9234 6.06 80.0834 6.1C80.2567 6.12667 80.3834 6.15333 80.4634 6.18L80.1434 7.8C79.9967 7.74667 79.75 7.68667 79.4034 7.62C79.07 7.54 78.6367 7.5 78.1034 7.5C77.7567 7.5 77.41 7.54 77.0634 7.62C76.73 7.68667 76.51 7.73333 76.4034 7.76V16.5H74.5434V6.54C74.9834 6.38 75.53 6.23333 76.1834 6.1C76.8367 5.95333 77.57 5.88 78.3834 5.88ZM90.6871 2.5C92.6338 2.5 94.1271 2.87333 95.1671 3.62C96.2204 4.35333 96.7471 5.45333 96.7471 6.92C96.7471 7.72 96.6004 8.40667 96.3071 8.98C96.0271 9.54 95.6138 10 95.0671 10.36C94.5338 10.7067 93.8804 10.96 93.1071 11.12C92.3338 11.28 91.4604 11.36 90.4871 11.36H88.9471V16.5H87.0071V2.84C87.5538 2.70667 88.1604 2.62 88.8271 2.58C89.5071 2.52667 90.1271 2.5 90.6871 2.5ZM90.8471 4.2C90.0204 4.2 89.3871 4.22 88.9471 4.26V9.7H90.4071C91.0738 9.7 91.6738 9.66 92.2071 9.58C92.7404 9.48667 93.1871 9.34 93.5471 9.14C93.9204 8.92667 94.2071 8.64 94.4071 8.28C94.6071 7.92 94.7071 7.46 94.7071 6.9C94.7071 6.36667 94.6004 5.92667 94.3871 5.58C94.1871 5.23333 93.9071 4.96 93.5471 4.76C93.2004 4.54667 92.7938 4.4 92.3271 4.32C91.8604 4.24 91.3671 4.2 90.8471 4.2ZM102.575 15.16C103.015 15.16 103.402 15.1533 103.735 15.14C104.082 15.1133 104.368 15.0733 104.595 15.02V11.92C104.462 11.8533 104.242 11.8 103.935 11.76C103.642 11.7067 103.282 11.68 102.855 11.68C102.575 11.68 102.275 11.7 101.955 11.74C101.648 11.78 101.362 11.8667 101.095 12C100.842 12.12 100.628 12.2933 100.455 12.52C100.282 12.7333 100.195 13.02 100.195 13.38C100.195 14.0467 100.408 14.5133 100.835 14.78C101.262 15.0333 101.842 15.16 102.575 15.16ZM102.415 5.84C103.162 5.84 103.788 5.94 104.295 6.14C104.815 6.32667 105.228 6.6 105.535 6.96C105.855 7.30667 106.082 7.72667 106.215 8.22C106.348 8.7 106.415 9.23333 106.415 9.82V16.32C106.255 16.3467 106.028 16.3867 105.735 16.44C105.455 16.48 105.135 16.52 104.775 16.56C104.415 16.6 104.022 16.6333 103.595 16.66C103.182 16.7 102.768 16.72 102.355 16.72C101.768 16.72 101.228 16.66 100.735 16.54C100.242 16.42 99.8151 16.2333 99.4551 15.98C99.0951 15.7133 98.8151 15.3667 98.6151 14.94C98.4151 14.5133 98.3151 14 98.3151 13.4C98.3151 12.8267 98.4284 12.3333 98.6551 11.92C98.8951 11.5067 99.2151 11.1733 99.6151 10.92C100.015 10.6667 100.482 10.48 101.015 10.36C101.548 10.24 102.108 10.18 102.695 10.18C102.882 10.18 103.075 10.1933 103.275 10.22C103.475 10.2333 103.662 10.26 103.835 10.3C104.022 10.3267 104.182 10.3533 104.315 10.38C104.448 10.4067 104.542 10.4267 104.595 10.44V9.92C104.595 9.61333 104.562 9.31333 104.495 9.02C104.428 8.71333 104.308 8.44667 104.135 8.22C103.962 7.98 103.722 7.79333 103.415 7.66C103.122 7.51333 102.735 7.44 102.255 7.44C101.642 7.44 101.102 7.48667 100.635 7.58C100.182 7.66 99.8417 7.74667 99.6151 7.84L99.3951 6.3C99.6351 6.19333 100.035 6.09333 100.595 6C101.155 5.89333 101.762 5.84 102.415 5.84ZM113.344 5.88C113.504 5.88 113.684 5.89333 113.884 5.92C114.098 5.93333 114.304 5.96 114.504 6C114.704 6.02667 114.884 6.06 115.044 6.1C115.218 6.12667 115.344 6.15333 115.424 6.18L115.104 7.8C114.958 7.74667 114.711 7.68667 114.364 7.62C114.031 7.54 113.598 7.5 113.064 7.5C112.718 7.5 112.371 7.54 112.024 7.62C111.691 7.68667 111.471 7.73333 111.364 7.76V16.5H109.504V6.54C109.944 6.38 110.491 6.23333 111.144 6.1C111.798 5.95333 112.531 5.88 113.344 5.88ZM118.959 6.1H122.899V7.66H118.959V12.46C118.959 12.98 118.999 13.4133 119.079 13.76C119.159 14.0933 119.279 14.36 119.439 14.56C119.599 14.7467 119.799 14.88 120.039 14.96C120.279 15.04 120.559 15.08 120.879 15.08C121.439 15.08 121.886 15.02 122.219 14.9C122.566 14.7667 122.806 14.6733 122.939 14.62L123.299 16.16C123.112 16.2533 122.786 16.3667 122.319 16.5C121.852 16.6467 121.319 16.72 120.719 16.72C120.012 16.72 119.426 16.6333 118.959 16.46C118.506 16.2733 118.139 16 117.859 15.64C117.579 15.28 117.379 14.84 117.259 14.32C117.152 13.7867 117.099 13.1733 117.099 12.48V3.2L118.959 2.88V6.1ZM125.266 6.4C125.693 6.29333 126.259 6.18 126.966 6.06C127.673 5.94 128.486 5.88 129.406 5.88C130.233 5.88 130.919 6 131.466 6.24C132.013 6.46667 132.446 6.79333 132.766 7.22C133.099 7.63333 133.333 8.13333 133.466 8.72C133.599 9.30667 133.666 9.95333 133.666 10.66V16.5H131.806V11.06C131.806 10.42 131.759 9.87333 131.666 9.42C131.586 8.96667 131.446 8.6 131.246 8.32C131.046 8.04 130.779 7.84 130.446 7.72C130.113 7.58667 129.699 7.52 129.206 7.52C129.006 7.52 128.799 7.52667 128.586 7.54C128.373 7.55333 128.166 7.57333 127.966 7.6C127.779 7.61333 127.606 7.63333 127.446 7.66C127.299 7.68667 127.193 7.70667 127.126 7.72V16.5H125.266V6.4ZM136.17 11.32C136.17 10.4 136.304 9.6 136.57 8.92C136.837 8.22667 137.19 7.65333 137.63 7.2C138.07 6.74667 138.577 6.40667 139.15 6.18C139.724 5.95333 140.31 5.84 140.91 5.84C142.31 5.84 143.384 6.28 144.13 7.16C144.877 8.02667 145.25 9.35333 145.25 11.14C145.25 11.22 145.25 11.3267 145.25 11.46C145.25 11.58 145.244 11.6933 145.23 11.8H138.11C138.19 12.88 138.504 13.7 139.05 14.26C139.597 14.82 140.45 15.1 141.61 15.1C142.264 15.1 142.81 15.0467 143.25 14.94C143.704 14.82 144.044 14.7067 144.27 14.6L144.53 16.16C144.304 16.28 143.904 16.4067 143.33 16.54C142.77 16.6733 142.13 16.74 141.41 16.74C140.504 16.74 139.717 16.6067 139.05 16.34C138.397 16.06 137.857 15.68 137.43 15.2C137.004 14.72 136.684 14.1533 136.47 13.5C136.27 12.8333 136.17 12.1067 136.17 11.32ZM143.31 10.3C143.324 9.46 143.11 8.77333 142.67 8.24C142.244 7.69333 141.65 7.42 140.89 7.42C140.464 7.42 140.084 7.50667 139.75 7.68C139.43 7.84 139.157 8.05333 138.93 8.32C138.704 8.58667 138.524 8.89333 138.39 9.24C138.27 9.58667 138.19 9.94 138.15 10.3H143.31ZM151.762 5.88C151.922 5.88 152.102 5.89333 152.302 5.92C152.516 5.93333 152.722 5.96 152.922 6C153.122 6.02667 153.302 6.06 153.462 6.1C153.636 6.12667 153.762 6.15333 153.842 6.18L153.522 7.8C153.376 7.74667 153.129 7.68667 152.782 7.62C152.449 7.54 152.016 7.5 151.482 7.5C151.136 7.5 150.789 7.54 150.442 7.62C150.109 7.68667 149.889 7.73333 149.782 7.76V16.5H147.922V6.54C148.362 6.38 148.909 6.23333 149.562 6.1C150.216 5.95333 150.949 5.88 151.762 5.88ZM158.057 15.16C158.817 15.16 159.377 15.06 159.737 14.86C160.11 14.66 160.297 14.34 160.297 13.9C160.297 13.4467 160.117 13.0867 159.757 12.82C159.397 12.5533 158.804 12.2533 157.977 11.92C157.577 11.76 157.19 11.6 156.817 11.44C156.457 11.2667 156.144 11.0667 155.877 10.84C155.61 10.6133 155.397 10.34 155.237 10.02C155.077 9.7 154.997 9.30667 154.997 8.84C154.997 7.92 155.337 7.19333 156.017 6.66C156.697 6.11333 157.624 5.84 158.797 5.84C159.09 5.84 159.384 5.86 159.677 5.9C159.97 5.92667 160.244 5.96667 160.497 6.02C160.75 6.06 160.97 6.10667 161.157 6.16C161.357 6.21333 161.51 6.26 161.617 6.3L161.277 7.9C161.077 7.79333 160.764 7.68667 160.337 7.58C159.91 7.46 159.397 7.4 158.797 7.4C158.277 7.4 157.824 7.50667 157.437 7.72C157.05 7.92 156.857 8.24 156.857 8.68C156.857 8.90667 156.897 9.10667 156.977 9.28C157.07 9.45333 157.204 9.61333 157.377 9.76C157.564 9.89333 157.79 10.02 158.057 10.14C158.324 10.26 158.644 10.3867 159.017 10.52C159.51 10.7067 159.95 10.8933 160.337 11.08C160.724 11.2533 161.05 11.46 161.317 11.7C161.597 11.94 161.81 12.2333 161.957 12.58C162.104 12.9133 162.177 13.3267 162.177 13.82C162.177 14.78 161.817 15.5067 161.097 16C160.39 16.4933 159.377 16.74 158.057 16.74C157.137 16.74 156.417 16.66 155.897 16.5C155.377 16.3533 155.024 16.24 154.837 16.16L155.177 14.56C155.39 14.64 155.73 14.76 156.197 14.92C156.664 15.08 157.284 15.16 158.057 15.16Z" fill="black"/>
</svg>
