<svg width="166" height="28" viewBox="0 0 166 28" fill="none" xmlns="http://www.w3.org/2000/svg">
<path d="M10.5001 0C4.81918 0 0.233398 4.69 0.233398 10.5C0.233398 17.5 10.5001 28 10.5001 28C10.5001 28 20.7667 17.5 20.7667 10.5C20.7667 4.69 16.181 0 10.5001 0ZM10.5001 3.5C14.2987 3.5 17.3445 6.65 17.3445 10.5C17.3445 14.385 14.2987 17.5 10.5001 17.5C6.73562 17.5 3.65562 14.385 3.65562 10.5C3.65562 6.65 6.73562 3.5 10.5001 3.5Z" fill="black"/>
<path d="M34.8104 20.12C36.837 20.12 37.8504 19.4267 37.8504 18.04C37.8504 17.6133 37.757 17.2533 37.5704 16.96C37.397 16.6533 37.157 16.3933 36.8504 16.18C36.5437 15.9533 36.1904 15.76 35.7904 15.6C35.4037 15.44 34.9904 15.28 34.5504 15.12C34.0437 14.9467 33.5637 14.7533 33.1104 14.54C32.657 14.3133 32.2637 14.0533 31.9304 13.76C31.597 13.4533 31.3304 13.0933 31.1304 12.68C30.9437 12.2667 30.8504 11.7667 30.8504 11.18C30.8504 9.96667 31.2637 9.02 32.0904 8.34C32.917 7.66 34.057 7.32 35.5104 7.32C36.3504 7.32 37.1104 7.41333 37.7904 7.6C38.4837 7.77333 38.9904 7.96667 39.3104 8.18L38.6904 9.76C38.4104 9.58667 37.9904 9.42 37.4304 9.26C36.8837 9.08667 36.2437 9 35.5104 9C35.137 9 34.7904 9.04 34.4704 9.12C34.1504 9.2 33.8704 9.32 33.6304 9.48C33.3904 9.64 33.197 9.84667 33.0504 10.1C32.917 10.34 32.8504 10.6267 32.8504 10.96C32.8504 11.3333 32.9237 11.6467 33.0704 11.9C33.217 12.1533 33.4237 12.38 33.6904 12.58C33.957 12.7667 34.2637 12.94 34.6104 13.1C34.9704 13.26 35.3637 13.42 35.7904 13.58C36.3904 13.82 36.937 14.06 37.4304 14.3C37.937 14.54 38.3704 14.8267 38.7304 15.16C39.1037 15.4933 39.3904 15.8933 39.5904 16.36C39.7904 16.8133 39.8904 17.3667 39.8904 18.02C39.8904 19.2333 39.4437 20.1667 38.5504 20.82C37.6704 21.4733 36.4237 21.8 34.8104 21.8C34.2637 21.8 33.757 21.76 33.2904 21.68C32.837 21.6133 32.4304 21.5333 32.0704 21.44C31.7104 21.3333 31.397 21.2267 31.1304 21.12C30.877 21 30.677 20.9 30.5304 20.82L31.1104 19.22C31.417 19.3933 31.8837 19.5867 32.5104 19.8C33.137 20.0133 33.9037 20.12 34.8104 20.12ZM41.5349 16.32C41.5349 15.4 41.6682 14.6 41.9349 13.92C42.2016 13.2267 42.5549 12.6533 42.9949 12.2C43.4349 11.7467 43.9416 11.4067 44.5149 11.18C45.0882 10.9533 45.6749 10.84 46.2749 10.84C47.6749 10.84 48.7482 11.28 49.4949 12.16C50.2416 13.0267 50.6149 14.3533 50.6149 16.14C50.6149 16.22 50.6149 16.3267 50.6149 16.46C50.6149 16.58 50.6082 16.6933 50.5949 16.8H43.4749C43.5549 17.88 43.8682 18.7 44.4149 19.26C44.9616 19.82 45.8149 20.1 46.9749 20.1C47.6282 20.1 48.1749 20.0467 48.6149 19.94C49.0682 19.82 49.4082 19.7067 49.6349 19.6L49.8949 21.16C49.6682 21.28 49.2682 21.4067 48.6949 21.54C48.1349 21.6733 47.4949 21.74 46.7749 21.74C45.8682 21.74 45.0816 21.6067 44.4149 21.34C43.7616 21.06 43.2216 20.68 42.7949 20.2C42.3682 19.72 42.0482 19.1533 41.8349 18.5C41.6349 17.8333 41.5349 17.1067 41.5349 16.32ZM48.6749 15.3C48.6882 14.46 48.4749 13.7733 48.0349 13.24C47.6082 12.6933 47.0149 12.42 46.2549 12.42C45.8282 12.42 45.4482 12.5067 45.1149 12.68C44.7949 12.84 44.5216 13.0533 44.2949 13.32C44.0682 13.5867 43.8882 13.8933 43.7549 14.24C43.6349 14.5867 43.5549 14.94 43.5149 15.3H48.6749ZM55.0268 11.1H58.9668V12.66H55.0268V17.46C55.0268 17.98 55.0668 18.4133 55.1468 18.76C55.2268 19.0933 55.3468 19.36 55.5068 19.56C55.6668 19.7467 55.8668 19.88 56.1068 19.96C56.3468 20.04 56.6268 20.08 56.9468 20.08C57.5068 20.08 57.9534 20.02 58.2868 19.9C58.6334 19.7667 58.8734 19.6733 59.0068 19.62L59.3668 21.16C59.1801 21.2533 58.8534 21.3667 58.3868 21.5C57.9201 21.6467 57.3868 21.72 56.7868 21.72C56.0801 21.72 55.4934 21.6333 55.0268 21.46C54.5734 21.2733 54.2068 21 53.9268 20.64C53.6468 20.28 53.4468 19.84 53.3268 19.32C53.2201 18.7867 53.1668 18.1733 53.1668 17.48V8.2L55.0268 7.88V11.1ZM74.4225 19.82V21.5H66.0825V7.64H68.0225V19.82H74.4225ZM85.5136 16.3C85.5136 17.1267 85.3936 17.8733 85.1536 18.54C84.9136 19.2067 84.5736 19.78 84.1336 20.26C83.707 20.74 83.1936 21.1133 82.5936 21.38C81.9936 21.6333 81.3403 21.76 80.6336 21.76C79.927 21.76 79.2736 21.6333 78.6736 21.38C78.0736 21.1133 77.5536 20.74 77.1136 20.26C76.687 19.78 76.3536 19.2067 76.1136 18.54C75.8736 17.8733 75.7536 17.1267 75.7536 16.3C75.7536 15.4867 75.8736 14.7467 76.1136 14.08C76.3536 13.4 76.687 12.82 77.1136 12.34C77.5536 11.86 78.0736 11.4933 78.6736 11.24C79.2736 10.9733 79.927 10.84 80.6336 10.84C81.3403 10.84 81.9936 10.9733 82.5936 11.24C83.1936 11.4933 83.707 11.86 84.1336 12.34C84.5736 12.82 84.9136 13.4 85.1536 14.08C85.3936 14.7467 85.5136 15.4867 85.5136 16.3ZM83.5736 16.3C83.5736 15.1267 83.307 14.2 82.7736 13.52C82.2536 12.8267 81.5403 12.48 80.6336 12.48C79.727 12.48 79.007 12.8267 78.4736 13.52C77.9536 14.2 77.6936 15.1267 77.6936 16.3C77.6936 17.4733 77.9536 18.4067 78.4736 19.1C79.007 19.78 79.727 20.12 80.6336 20.12C81.5403 20.12 82.2536 19.78 82.7736 19.1C83.307 18.4067 83.5736 17.4733 83.5736 16.3ZM92.6505 21.74C91.8105 21.74 91.0705 21.6067 90.4305 21.34C89.8039 21.0733 89.2705 20.7 88.8305 20.22C88.4039 19.74 88.0839 19.1733 87.8705 18.52C87.6572 17.8533 87.5505 17.12 87.5505 16.32C87.5505 15.52 87.6639 14.7867 87.8905 14.12C88.1305 13.4533 88.4639 12.88 88.8905 12.4C89.3172 11.9067 89.8372 11.5267 90.4505 11.26C91.0772 10.98 91.7705 10.84 92.5305 10.84C92.9972 10.84 93.4639 10.88 93.9305 10.96C94.3972 11.04 94.8439 11.1667 95.2705 11.34L94.8505 12.92C94.5705 12.7867 94.2439 12.68 93.8705 12.6C93.5105 12.52 93.1239 12.48 92.7105 12.48C91.6705 12.48 90.8705 12.8067 90.3105 13.46C89.7639 14.1133 89.4905 15.0667 89.4905 16.32C89.4905 16.88 89.5505 17.3933 89.6705 17.86C89.8039 18.3267 90.0039 18.7267 90.2705 19.06C90.5505 19.3933 90.9039 19.6533 91.3305 19.84C91.7572 20.0133 92.2772 20.1 92.8905 20.1C93.3839 20.1 93.8305 20.0533 94.2305 19.96C94.6305 19.8667 94.9439 19.7667 95.1705 19.66L95.4305 21.22C95.3239 21.2867 95.1705 21.3533 94.9705 21.42C94.7705 21.4733 94.5439 21.52 94.2905 21.56C94.0372 21.6133 93.7639 21.6533 93.4705 21.68C93.1905 21.72 92.9172 21.74 92.6505 21.74ZM100.947 20.16C101.387 20.16 101.774 20.1533 102.107 20.14C102.454 20.1133 102.741 20.0733 102.967 20.02V16.92C102.834 16.8533 102.614 16.8 102.307 16.76C102.014 16.7067 101.654 16.68 101.227 16.68C100.947 16.68 100.647 16.7 100.327 16.74C100.021 16.78 99.7341 16.8667 99.4674 17C99.2141 17.12 99.0007 17.2933 98.8274 17.52C98.6541 17.7333 98.5674 18.02 98.5674 18.38C98.5674 19.0467 98.7807 19.5133 99.2074 19.78C99.6341 20.0333 100.214 20.16 100.947 20.16ZM100.787 10.84C101.534 10.84 102.161 10.94 102.667 11.14C103.187 11.3267 103.601 11.6 103.907 11.96C104.227 12.3067 104.454 12.7267 104.587 13.22C104.721 13.7 104.787 14.2333 104.787 14.82V21.32C104.627 21.3467 104.401 21.3867 104.107 21.44C103.827 21.48 103.507 21.52 103.147 21.56C102.787 21.6 102.394 21.6333 101.967 21.66C101.554 21.7 101.141 21.72 100.727 21.72C100.141 21.72 99.6007 21.66 99.1074 21.54C98.6141 21.42 98.1874 21.2333 97.8274 20.98C97.4674 20.7133 97.1874 20.3667 96.9874 19.94C96.7874 19.5133 96.6874 19 96.6874 18.4C96.6874 17.8267 96.8007 17.3333 97.0274 16.92C97.2674 16.5067 97.5874 16.1733 97.9874 15.92C98.3874 15.6667 98.8541 15.48 99.3874 15.36C99.9207 15.24 100.481 15.18 101.067 15.18C101.254 15.18 101.447 15.1933 101.647 15.22C101.847 15.2333 102.034 15.26 102.207 15.3C102.394 15.3267 102.554 15.3533 102.687 15.38C102.821 15.4067 102.914 15.4267 102.967 15.44V14.92C102.967 14.6133 102.934 14.3133 102.867 14.02C102.801 13.7133 102.681 13.4467 102.507 13.22C102.334 12.98 102.094 12.7933 101.787 12.66C101.494 12.5133 101.107 12.44 100.627 12.44C100.014 12.44 99.4741 12.4867 99.0074 12.58C98.5541 12.66 98.2141 12.7467 97.9874 12.84L97.7674 11.3C98.0074 11.1933 98.4074 11.0933 98.9674 11C99.5274 10.8933 100.134 10.84 100.787 10.84ZM109.617 11.1H113.557V12.66H109.617V17.46C109.617 17.98 109.657 18.4133 109.737 18.76C109.817 19.0933 109.937 19.36 110.097 19.56C110.257 19.7467 110.457 19.88 110.697 19.96C110.937 20.04 111.217 20.08 111.537 20.08C112.097 20.08 112.543 20.02 112.877 19.9C113.223 19.7667 113.463 19.6733 113.597 19.62L113.957 21.16C113.77 21.2533 113.443 21.3667 112.977 21.5C112.51 21.6467 111.977 21.72 111.377 21.72C110.67 21.72 110.083 21.6333 109.617 21.46C109.163 21.2733 108.797 21 108.517 20.64C108.237 20.28 108.037 19.84 107.917 19.32C107.81 18.7867 107.757 18.1733 107.757 17.48V8.2L109.617 7.88V11.1ZM117.783 21.5H115.923V11.1H117.783V21.5ZM116.843 9.22C116.51 9.22 116.223 9.11333 115.983 8.9C115.757 8.67333 115.643 8.37333 115.643 8C115.643 7.62667 115.757 7.33333 115.983 7.12C116.223 6.89333 116.51 6.78 116.843 6.78C117.177 6.78 117.457 6.89333 117.683 7.12C117.923 7.33333 118.043 7.62667 118.043 8C118.043 8.37333 117.923 8.67333 117.683 8.9C117.457 9.11333 117.177 9.22 116.843 9.22ZM130.162 16.3C130.162 17.1267 130.042 17.8733 129.802 18.54C129.562 19.2067 129.222 19.78 128.782 20.26C128.355 20.74 127.842 21.1133 127.242 21.38C126.642 21.6333 125.989 21.76 125.282 21.76C124.575 21.76 123.922 21.6333 123.322 21.38C122.722 21.1133 122.202 20.74 121.762 20.26C121.335 19.78 121.002 19.2067 120.762 18.54C120.522 17.8733 120.402 17.1267 120.402 16.3C120.402 15.4867 120.522 14.7467 120.762 14.08C121.002 13.4 121.335 12.82 121.762 12.34C122.202 11.86 122.722 11.4933 123.322 11.24C123.922 10.9733 124.575 10.84 125.282 10.84C125.989 10.84 126.642 10.9733 127.242 11.24C127.842 11.4933 128.355 11.86 128.782 12.34C129.222 12.82 129.562 13.4 129.802 14.08C130.042 14.7467 130.162 15.4867 130.162 16.3ZM128.222 16.3C128.222 15.1267 127.955 14.2 127.422 13.52C126.902 12.8267 126.189 12.48 125.282 12.48C124.375 12.48 123.655 12.8267 123.122 13.52C122.602 14.2 122.342 15.1267 122.342 16.3C122.342 17.4733 122.602 18.4067 123.122 19.1C123.655 19.78 124.375 20.12 125.282 20.12C126.189 20.12 126.902 19.78 127.422 19.1C127.955 18.4067 128.222 17.4733 128.222 16.3ZM132.779 11.4C133.206 11.2933 133.772 11.18 134.479 11.06C135.186 10.94 135.999 10.88 136.919 10.88C137.746 10.88 138.432 11 138.979 11.24C139.526 11.4667 139.959 11.7933 140.279 12.22C140.612 12.6333 140.846 13.1333 140.979 13.72C141.112 14.3067 141.179 14.9533 141.179 15.66V21.5H139.319V16.06C139.319 15.42 139.272 14.8733 139.179 14.42C139.099 13.9667 138.959 13.6 138.759 13.32C138.559 13.04 138.292 12.84 137.959 12.72C137.626 12.5867 137.212 12.52 136.719 12.52C136.519 12.52 136.312 12.5267 136.099 12.54C135.886 12.5533 135.679 12.5733 135.479 12.6C135.292 12.6133 135.119 12.6333 134.959 12.66C134.812 12.6867 134.706 12.7067 134.639 12.72V21.5H132.779V11.4Z" fill="black"/>
<path d="M148.142 10.5L144.767 13.7727L153.767 22.5L162.767 13.7727L159.392 10.5L153.767 15.9545L148.142 10.5Z" fill="black"/>
</svg>
