<svg width="262" height="108" viewBox="0 0 262 108" fill="none" xmlns="http://www.w3.org/2000/svg">
<path d="M24.8376 80.96C20.3176 80.96 16.9976 79.82 14.8776 77.54C12.7576 75.26 11.6976 71.48 11.6976 66.2C11.6976 62 12.3976 57.48 13.7976 52.64C15.2376 47.8 17.5176 43.66 20.6376 40.22C23.7976 36.74 27.7976 35 32.6376 35C35.6376 35 38.0576 35.66 39.8976 36.98C41.7376 38.3 42.6576 40.32 42.6576 43.04C42.6576 44.76 42.3176 46.12 41.6376 47.12C40.9576 48.08 39.8976 48.56 38.4576 48.56C37.0176 48.56 35.8776 48.04 35.0376 47C35.7576 46.64 36.3976 45.92 36.9576 44.84C37.5176 43.76 37.7976 42.64 37.7976 41.48C37.7976 40.4 37.4976 39.52 36.8976 38.84C36.3376 38.16 35.4176 37.82 34.1376 37.82C32.0176 37.82 29.9976 39.28 28.0776 42.2C26.1576 45.08 24.5976 48.72 23.3976 53.12C22.2376 57.52 21.6576 61.76 21.6576 65.84C21.6576 68.88 22.1776 71.2 23.2176 72.8C24.2576 74.4 26.1376 75.2 28.8576 75.2C31.2176 75.2 33.3976 74.68 35.3976 73.64C37.3976 72.6 39.1176 71.12 40.5576 69.2L41.9376 69.8C40.9376 72.32 39.4576 74.42 37.4976 76.1C35.5376 77.78 33.4376 79.02 31.1976 79.82C28.9576 80.58 26.8376 80.96 24.8376 80.96ZM46.3218 80.36C44.4018 80.36 42.8418 79.76 41.6418 78.56C40.4818 77.36 39.9018 75.56 39.9018 73.16C39.9018 72.16 40.0618 70.86 40.3818 69.26L46.8018 39.2L55.6818 38L48.7818 70.4C48.6218 71 48.5418 71.64 48.5418 72.32C48.5418 73.12 48.7218 73.7 49.0818 74.06C49.4818 74.38 50.1218 74.54 51.0018 74.54C52.1618 74.54 53.2418 74.06 54.2418 73.1C55.2418 72.1 55.9618 70.82 56.4018 69.26H58.9218C57.4418 73.58 55.5418 76.52 53.2218 78.08C50.9018 79.6 48.6018 80.36 46.3218 80.36ZM88.8979 80.36C85.6979 80.36 83.4979 79.6 82.2979 78.08C81.1379 76.56 80.5579 74.66 80.5579 72.38C80.5579 70.7 80.9979 69.34 81.8779 68.3C82.7579 67.22 83.7579 66.68 84.8779 66.68C86.9579 66.68 87.9979 67.52 87.9979 69.2C87.9979 69.92 87.7179 70.56 87.1579 71.12C86.5979 71.64 85.9179 71.9 85.1179 71.9C84.2779 71.9 83.7379 71.64 83.4979 71.12C83.4979 72.56 83.7779 73.68 84.3379 74.48C84.9379 75.24 85.8179 75.62 86.9779 75.62C88.3379 75.62 89.2979 75.22 89.8579 74.42C90.4579 73.58 90.7579 72.12 90.7579 70.04C90.7579 68.84 90.6379 67.32 90.3979 65.48C89.9979 61.64 89.6779 57.72 89.4379 53.72C86.5979 58.08 83.2379 60.84 79.3579 62C79.1179 65.68 78.3379 68.9 77.0179 71.66C75.6979 74.42 73.9979 76.54 71.9179 78.02C69.8779 79.5 67.6179 80.24 65.1379 80.24C62.1779 80.24 59.8379 79.48 58.1179 77.96C56.3979 76.44 55.5379 74.04 55.5379 70.76C55.5379 68 56.0779 64.98 57.1579 61.7C58.2379 58.38 59.9979 55.52 62.4379 53.12C64.8779 50.68 67.9979 49.46 71.7979 49.46C76.8779 49.46 79.4379 52.6 79.4779 58.88C82.4379 58.72 85.6979 55.54 89.2579 49.34L98.1379 48.14C98.3379 53.26 98.6779 58.8 99.1579 64.76C99.3579 67.16 99.4579 68.9 99.4579 69.98C99.4579 70.78 99.3979 71.52 99.2779 72.2C100.478 71.52 101.898 70.54 103.538 69.26H106.058C103.858 71.82 101.078 74.16 97.7179 76.28C96.7179 77.72 95.4379 78.76 93.8779 79.4C92.3579 80.04 90.6979 80.36 88.8979 80.36ZM67.5379 74.84C69.0179 74.84 70.3979 73.66 71.6779 71.3C72.9579 68.9 73.8379 65.94 74.3179 62.42C73.3579 62.06 72.8779 61.16 72.8779 59.72C72.8779 58.16 73.4379 57.12 74.5579 56.6C74.4779 55.32 74.2579 54.42 73.8979 53.9C73.5779 53.38 73.0379 53.12 72.2779 53.12C70.9579 53.12 69.6979 54.08 68.4979 56C67.2979 57.88 66.3179 60.18 65.5579 62.9C64.8379 65.58 64.4779 67.94 64.4779 69.98C64.4779 71.9 64.6979 73.2 65.1379 73.88C65.5779 74.52 66.3779 74.84 67.5379 74.84ZM112.006 80.36C109.086 80.36 106.806 79.6 105.166 78.08C103.526 76.52 102.706 74.1 102.706 70.82C102.706 68.06 103.246 65.02 104.326 61.7C105.406 58.38 107.166 55.52 109.606 53.12C112.046 50.68 115.146 49.46 118.906 49.46C123.306 49.46 125.506 51.38 125.506 55.22C125.506 57.46 124.866 59.52 123.586 61.4C122.306 63.28 120.606 64.8 118.486 65.96C116.366 67.08 114.106 67.72 111.706 67.88C111.626 68.76 111.586 69.36 111.586 69.68C111.586 73 112.826 74.66 115.306 74.66C116.426 74.66 117.626 74.36 118.906 73.76C120.186 73.16 121.346 72.4 122.386 71.48C121.306 77.4 117.846 80.36 112.006 80.36ZM112.126 65C113.646 64.96 115.066 64.46 116.386 63.5C117.746 62.54 118.826 61.32 119.626 59.84C120.466 58.32 120.886 56.74 120.886 55.1C120.886 53.46 120.386 52.64 119.386 52.64C117.986 52.64 116.586 53.92 115.186 56.48C113.826 59 112.806 61.84 112.126 65ZM165.616 81.19C163.75 81.19 162.116 80.7933 160.716 80C159.363 79.2533 158.686 77.9233 158.686 76.01C158.686 74.7967 158.99 73.4433 159.596 71.95C160.436 72.8833 161.206 73.5367 161.906 73.91C162.653 74.2833 163.446 74.47 164.286 74.47C166.62 74.47 168.346 73.1633 169.466 70.55C170.633 67.9367 171.216 65.0433 171.216 61.87C171.216 55.9433 169 52.98 164.566 52.98C163.306 52.98 162.233 53.05 161.346 53.19L155.606 80H145.526L155.046 35.48L165.406 34.08L162.116 49.62H162.536C164.31 49.62 165.966 49.06 167.506 47.94C169.046 46.7733 170.283 45.3267 171.216 43.6C172.15 41.8267 172.616 40.0533 172.616 38.28C172.616 36.1333 171.846 34.3367 170.306 32.89C168.813 31.4433 166.503 30.72 163.376 30.72C160.53 30.72 157.753 31.3733 155.046 32.68C152.34 33.94 150.123 35.8533 148.396 38.42C146.716 40.9867 145.876 44.09 145.876 47.73C145.876 49.4567 146.04 50.67 146.366 51.37C146.693 52.0233 146.856 52.3967 146.856 52.49C144.383 52.49 142.516 52 141.256 51.02C139.996 49.9933 139.366 48.3367 139.366 46.05C139.366 42.8767 140.556 39.8667 142.936 37.02C145.316 34.1733 148.466 31.8867 152.386 30.16C156.306 28.3867 160.436 27.5 164.776 27.5C168.043 27.5 170.796 28.0133 173.036 29.04C175.276 30.0667 176.933 31.42 178.006 33.1C179.126 34.78 179.686 36.6233 179.686 38.63C179.686 40.7767 179.08 42.8533 177.866 44.86C176.653 46.8667 174.926 48.5 172.686 49.76C175.486 50.2733 177.563 51.58 178.916 53.68C180.27 55.7333 180.946 58.1833 180.946 61.03C180.946 63.69 180.433 66.5833 179.406 69.71C178.426 72.8367 176.77 75.5433 174.436 77.83C172.15 80.07 169.21 81.19 165.616 81.19ZM190.3 80.42C188.06 80.42 186.24 79.72 184.84 78.32C183.487 76.92 182.81 74.82 182.81 72.02C182.81 70.8533 182.997 69.3367 183.37 67.47L188.13 45H198.21L193.17 68.8C193.03 69.5 192.96 70.1533 192.96 70.76C192.96 72.6733 193.66 73.63 195.06 73.63C196.367 73.63 197.487 73.0933 198.42 72.02C199.353 70.9 200.1 69.3833 200.66 67.47L205.42 45H215.5L210.46 68.8C210.273 69.5 210.18 70.2467 210.18 71.04C210.18 71.9733 210.39 72.65 210.81 73.07C211.277 73.4433 212.023 73.63 213.05 73.63C214.357 73.63 215.477 73.07 216.41 71.95C217.39 70.83 218.16 69.3367 218.72 67.47H221.66C219.933 72.51 217.787 75.94 215.22 77.76C212.7 79.5333 210.157 80.42 207.59 80.42C205.583 80.42 203.973 79.86 202.76 78.74C201.593 77.62 200.893 75.9633 200.66 73.77C199.073 76.3367 197.393 78.0867 195.62 79.02C193.893 79.9533 192.12 80.42 190.3 80.42ZM229.632 97.5C227.439 97.5 225.502 96.7767 223.822 95.33C222.189 93.93 221.372 92.1333 221.372 89.94C221.372 87.8867 221.885 86.2067 222.912 84.9C223.939 83.5933 225.269 82.5667 226.902 81.82C228.535 81.0733 230.729 80.28 233.482 79.44L234.182 76.36C231.802 79.0667 228.955 80.42 225.642 80.42C223.402 80.42 221.582 79.72 220.182 78.32C218.829 76.92 218.152 74.82 218.152 72.02C218.152 70.8533 218.339 69.3367 218.712 67.47L223.472 45H233.552L228.512 68.8C228.372 69.36 228.302 69.9433 228.302 70.55C228.302 72.6033 229.002 73.63 230.402 73.63C231.709 73.63 232.829 73.0933 233.762 72.02C234.695 70.9 235.442 69.3833 236.002 67.47L240.762 45H250.912L242.372 85.6C241.439 90.08 239.782 93.1833 237.402 94.91C235.069 96.6367 232.479 97.5 229.632 97.5ZM228.022 91.27C228.862 91.27 229.655 90.8267 230.402 89.94C231.149 89.1 231.732 87.7233 232.152 85.81L232.992 81.68C230.519 82.52 228.605 83.5 227.252 84.62C225.899 85.74 225.222 87.1867 225.222 88.96C225.222 89.52 225.502 90.0333 226.062 90.5C226.622 91.0133 227.275 91.27 228.022 91.27Z" fill="url(#paint0_angular_27_32)"/>
<defs>
<radialGradient id="paint0_angular_27_32" cx="0" cy="0" r="1" gradientUnits="userSpaceOnUse" gradientTransform="translate(130.733 54) rotate(90) scale(44 120.5)">
<stop offset="0.0654873" stop-color="#0024A3"/>
<stop offset="0.568926" stop-color="#24C2F3"/>
<stop offset="0.911458" stop-color="#2D6DCE"/>
</radialGradient>
</defs>
</svg>
