<svg width="235" height="27" viewBox="0 0 235 27" fill="none" xmlns="http://www.w3.org/2000/svg">
<path d="M23.4952 19.62C23.2152 19.62 22.9085 19.6133 22.5752 19.6C22.2552 19.5867 21.9285 19.5667 21.5952 19.54C21.2752 19.5133 20.9552 19.48 20.6352 19.44C20.3152 19.4 20.0218 19.3467 19.7552 19.28V5.84C20.0218 5.77333 20.3152 5.72 20.6352 5.68C20.9552 5.64 21.2752 5.60667 21.5952 5.58C21.9285 5.55333 22.2552 5.53333 22.5752 5.52C22.8952 5.50667 23.1952 5.5 23.4752 5.5C24.2752 5.5 25.0218 5.56 25.7152 5.68C26.4218 5.8 27.0285 6.00667 27.5352 6.3C28.0552 6.58 28.4618 6.95333 28.7552 7.42C29.0485 7.88667 29.1952 8.46 29.1952 9.14C29.1952 9.9 29.0152 10.5267 28.6552 11.02C28.2952 11.5 27.8152 11.86 27.2152 12.1C28.0285 12.34 28.6752 12.72 29.1552 13.24C29.6352 13.76 29.8752 14.4933 29.8752 15.44C29.8752 16.8267 29.3618 17.8733 28.3352 18.58C27.3218 19.2733 25.7085 19.62 23.4952 19.62ZM21.6752 13.04V17.92C21.8218 17.9333 21.9952 17.9467 22.1952 17.96C22.3685 17.9733 22.5685 17.9867 22.7952 18C23.0352 18 23.3085 18 23.6152 18C24.1885 18 24.7285 17.9667 25.2352 17.9C25.7552 17.82 26.2085 17.6867 26.5952 17.5C26.9818 17.3133 27.2885 17.0533 27.5152 16.72C27.7552 16.3867 27.8752 15.9667 27.8752 15.46C27.8752 15.0067 27.7885 14.6267 27.6152 14.32C27.4418 14 27.1885 13.7467 26.8552 13.56C26.5352 13.3733 26.1485 13.24 25.6952 13.16C25.2418 13.08 24.7352 13.04 24.1752 13.04H21.6752ZM21.6752 11.48H23.7152C24.1952 11.48 24.6485 11.4467 25.0752 11.38C25.5018 11.3133 25.8685 11.1933 26.1752 11.02C26.4952 10.8467 26.7418 10.62 26.9152 10.34C27.1018 10.06 27.1952 9.70667 27.1952 9.28C27.1952 8.88 27.1018 8.54667 26.9152 8.28C26.7285 8 26.4685 7.78 26.1352 7.62C25.8152 7.44667 25.4352 7.32 24.9952 7.24C24.5552 7.16 24.0885 7.12 23.5952 7.12C23.1018 7.12 22.7152 7.12667 22.4352 7.14C22.1552 7.15333 21.9018 7.17333 21.6752 7.2V11.48ZM40.7667 19.2C40.3401 19.3067 39.7734 19.42 39.0667 19.54C38.3734 19.66 37.5667 19.72 36.6467 19.72C35.8467 19.72 35.1734 19.6067 34.6267 19.38C34.0801 19.14 33.6401 18.8067 33.3067 18.38C32.9734 17.9533 32.7334 17.4533 32.5867 16.88C32.4401 16.2933 32.3667 15.6467 32.3667 14.94V9.1H34.2267V14.54C34.2267 15.8067 34.4267 16.7133 34.8267 17.26C35.2267 17.8067 35.9001 18.08 36.8467 18.08C37.0467 18.08 37.2534 18.0733 37.4667 18.06C37.6801 18.0467 37.8801 18.0333 38.0667 18.02C38.2534 17.9933 38.4201 17.9733 38.5667 17.96C38.7267 17.9333 38.8401 17.9067 38.9067 17.88V9.1H40.7667V19.2ZM46.3911 18.16C47.1511 18.16 47.7111 18.06 48.0711 17.86C48.4444 17.66 48.6311 17.34 48.6311 16.9C48.6311 16.4467 48.4511 16.0867 48.0911 15.82C47.7311 15.5533 47.1378 15.2533 46.3111 14.92C45.9111 14.76 45.5244 14.6 45.1511 14.44C44.7911 14.2667 44.4778 14.0667 44.2111 13.84C43.9444 13.6133 43.7311 13.34 43.5711 13.02C43.4111 12.7 43.3311 12.3067 43.3311 11.84C43.3311 10.92 43.6711 10.1933 44.3511 9.66C45.0311 9.11333 45.9578 8.84 47.1311 8.84C47.4244 8.84 47.7178 8.86 48.0111 8.9C48.3044 8.92667 48.5778 8.96667 48.8311 9.02C49.0844 9.06 49.3044 9.10667 49.4911 9.16C49.6911 9.21333 49.8444 9.26 49.9511 9.3L49.6111 10.9C49.4111 10.7933 49.0978 10.6867 48.6711 10.58C48.2444 10.46 47.7311 10.4 47.1311 10.4C46.6111 10.4 46.1578 10.5067 45.7711 10.72C45.3844 10.92 45.1911 11.24 45.1911 11.68C45.1911 11.9067 45.2311 12.1067 45.3111 12.28C45.4044 12.4533 45.5378 12.6133 45.7111 12.76C45.8978 12.8933 46.1244 13.02 46.3911 13.14C46.6578 13.26 46.9778 13.3867 47.3511 13.52C47.8444 13.7067 48.2844 13.8933 48.6711 14.08C49.0578 14.2533 49.3844 14.46 49.6511 14.7C49.9311 14.94 50.1444 15.2333 50.2911 15.58C50.4378 15.9133 50.5111 16.3267 50.5111 16.82C50.5111 17.78 50.1511 18.5067 49.4311 19C48.7244 19.4933 47.7111 19.74 46.3911 19.74C45.4711 19.74 44.7511 19.66 44.2311 19.5C43.7111 19.3533 43.3578 19.24 43.1711 19.16L43.5111 17.56C43.7244 17.64 44.0644 17.76 44.5311 17.92C44.9978 18.08 45.6178 18.16 46.3911 18.16ZM54.7569 19.5H52.8969V9.1H54.7569V19.5ZM53.8169 7.22C53.4835 7.22 53.1969 7.11333 52.9569 6.9C52.7302 6.67333 52.6169 6.37333 52.6169 6C52.6169 5.62667 52.7302 5.33333 52.9569 5.12C53.1969 4.89333 53.4835 4.78 53.8169 4.78C54.1502 4.78 54.4302 4.89333 54.6569 5.12C54.8969 5.33333 55.0169 5.62667 55.0169 6C55.0169 6.37333 54.8969 6.67333 54.6569 6.9C54.4302 7.11333 54.1502 7.22 53.8169 7.22ZM57.9555 9.4C58.3821 9.29333 58.9488 9.18 59.6555 9.06C60.3621 8.94 61.1755 8.88 62.0955 8.88C62.9221 8.88 63.6088 9 64.1555 9.24C64.7021 9.46667 65.1355 9.79333 65.4555 10.22C65.7888 10.6333 66.0221 11.1333 66.1555 11.72C66.2888 12.3067 66.3555 12.9533 66.3555 13.66V19.5H64.4955V14.06C64.4955 13.42 64.4488 12.8733 64.3555 12.42C64.2755 11.9667 64.1355 11.6 63.9355 11.32C63.7355 11.04 63.4688 10.84 63.1355 10.72C62.8021 10.5867 62.3888 10.52 61.8955 10.52C61.6955 10.52 61.4888 10.5267 61.2755 10.54C61.0621 10.5533 60.8555 10.5733 60.6555 10.6C60.4688 10.6133 60.2955 10.6333 60.1355 10.66C59.9888 10.6867 59.8821 10.7067 59.8155 10.72V19.5H57.9555V9.4ZM68.8598 14.32C68.8598 13.4 68.9932 12.6 69.2598 11.92C69.5265 11.2267 69.8798 10.6533 70.3198 10.2C70.7598 9.74667 71.2665 9.40667 71.8398 9.18C72.4132 8.95333 72.9998 8.84 73.5998 8.84C74.9998 8.84 76.0732 9.28 76.8198 10.16C77.5665 11.0267 77.9398 12.3533 77.9398 14.14C77.9398 14.22 77.9398 14.3267 77.9398 14.46C77.9398 14.58 77.9332 14.6933 77.9198 14.8H70.7998C70.8798 15.88 71.1932 16.7 71.7398 17.26C72.2865 17.82 73.1398 18.1 74.2998 18.1C74.9532 18.1 75.4998 18.0467 75.9398 17.94C76.3932 17.82 76.7332 17.7067 76.9598 17.6L77.2198 19.16C76.9932 19.28 76.5932 19.4067 76.0198 19.54C75.4598 19.6733 74.8198 19.74 74.0998 19.74C73.1932 19.74 72.4065 19.6067 71.7398 19.34C71.0865 19.06 70.5465 18.68 70.1198 18.2C69.6932 17.72 69.3732 17.1533 69.1598 16.5C68.9598 15.8333 68.8598 15.1067 68.8598 14.32ZM75.9998 13.3C76.0132 12.46 75.7998 11.7733 75.3598 11.24C74.9332 10.6933 74.3398 10.42 73.5798 10.42C73.1532 10.42 72.7732 10.5067 72.4398 10.68C72.1198 10.84 71.8465 11.0533 71.6198 11.32C71.3932 11.5867 71.2132 11.8933 71.0798 12.24C70.9598 12.5867 70.8798 12.94 70.8398 13.3H75.9998ZM83.0317 18.16C83.7917 18.16 84.3517 18.06 84.7117 17.86C85.0851 17.66 85.2717 17.34 85.2717 16.9C85.2717 16.4467 85.0917 16.0867 84.7317 15.82C84.3717 15.5533 83.7784 15.2533 82.9517 14.92C82.5517 14.76 82.1651 14.6 81.7917 14.44C81.4317 14.2667 81.1184 14.0667 80.8517 13.84C80.5851 13.6133 80.3717 13.34 80.2117 13.02C80.0517 12.7 79.9717 12.3067 79.9717 11.84C79.9717 10.92 80.3117 10.1933 80.9917 9.66C81.6717 9.11333 82.5984 8.84 83.7717 8.84C84.0651 8.84 84.3584 8.86 84.6517 8.9C84.9451 8.92667 85.2184 8.96667 85.4717 9.02C85.7251 9.06 85.9451 9.10667 86.1317 9.16C86.3317 9.21333 86.4851 9.26 86.5917 9.3L86.2517 10.9C86.0517 10.7933 85.7384 10.6867 85.3117 10.58C84.8851 10.46 84.3717 10.4 83.7717 10.4C83.2517 10.4 82.7984 10.5067 82.4117 10.72C82.0251 10.92 81.8317 11.24 81.8317 11.68C81.8317 11.9067 81.8717 12.1067 81.9517 12.28C82.0451 12.4533 82.1784 12.6133 82.3517 12.76C82.5384 12.8933 82.7651 13.02 83.0317 13.14C83.2984 13.26 83.6184 13.3867 83.9917 13.52C84.4851 13.7067 84.9251 13.8933 85.3117 14.08C85.6984 14.2533 86.0251 14.46 86.2917 14.7C86.5717 14.94 86.7851 15.2333 86.9317 15.58C87.0784 15.9133 87.1517 16.3267 87.1517 16.82C87.1517 17.78 86.7917 18.5067 86.0717 19C85.3651 19.4933 84.3517 19.74 83.0317 19.74C82.1117 19.74 81.3917 19.66 80.8717 19.5C80.3517 19.3533 79.9984 19.24 79.8117 19.16L80.1517 17.56C80.3651 17.64 80.7051 17.76 81.1717 17.92C81.6384 18.08 82.2584 18.16 83.0317 18.16ZM91.9575 18.16C92.7175 18.16 93.2775 18.06 93.6375 17.86C94.0108 17.66 94.1975 17.34 94.1975 16.9C94.1975 16.4467 94.0175 16.0867 93.6575 15.82C93.2975 15.5533 92.7042 15.2533 91.8775 14.92C91.4775 14.76 91.0908 14.6 90.7175 14.44C90.3575 14.2667 90.0442 14.0667 89.7775 13.84C89.5108 13.6133 89.2975 13.34 89.1375 13.02C88.9775 12.7 88.8975 12.3067 88.8975 11.84C88.8975 10.92 89.2375 10.1933 89.9175 9.66C90.5975 9.11333 91.5242 8.84 92.6975 8.84C92.9908 8.84 93.2842 8.86 93.5775 8.9C93.8708 8.92667 94.1442 8.96667 94.3975 9.02C94.6508 9.06 94.8708 9.10667 95.0575 9.16C95.2575 9.21333 95.4108 9.26 95.5175 9.3L95.1775 10.9C94.9775 10.7933 94.6642 10.6867 94.2375 10.58C93.8108 10.46 93.2975 10.4 92.6975 10.4C92.1775 10.4 91.7242 10.5067 91.3375 10.72C90.9508 10.92 90.7575 11.24 90.7575 11.68C90.7575 11.9067 90.7975 12.1067 90.8775 12.28C90.9708 12.4533 91.1042 12.6133 91.2775 12.76C91.4642 12.8933 91.6908 13.02 91.9575 13.14C92.2242 13.26 92.5442 13.3867 92.9175 13.52C93.4108 13.7067 93.8508 13.8933 94.2375 14.08C94.6242 14.2533 94.9508 14.46 95.2175 14.7C95.4975 14.94 95.7108 15.2333 95.8575 15.58C96.0042 15.9133 96.0775 16.3267 96.0775 16.82C96.0775 17.78 95.7175 18.5067 94.9975 19C94.2908 19.4933 93.2775 19.74 91.9575 19.74C91.0375 19.74 90.3175 19.66 89.7975 19.5C89.2775 19.3533 88.9242 19.24 88.7375 19.16L89.0775 17.56C89.2908 17.64 89.6308 17.76 90.0975 17.92C90.5642 18.08 91.1842 18.16 91.9575 18.16ZM111.592 19.5C111.219 18.54 110.819 17.4467 110.392 16.22C109.979 14.98 109.599 13.6933 109.252 12.36C108.906 13.6933 108.526 14.98 108.112 16.22C107.699 17.4467 107.306 18.54 106.932 19.5H105.312C104.699 18.1267 104.099 16.56 103.512 14.8C102.926 13.04 102.372 11.14 101.852 9.1H103.852C103.986 9.72667 104.146 10.4067 104.332 11.14C104.519 11.8733 104.712 12.6067 104.912 13.34C105.126 14.0733 105.346 14.78 105.572 15.46C105.799 16.14 106.012 16.7333 106.212 17.24C106.439 16.6133 106.659 15.9533 106.872 15.26C107.099 14.5533 107.312 13.8467 107.512 13.14C107.712 12.42 107.899 11.72 108.072 11.04C108.259 10.3467 108.419 9.7 108.552 9.1H110.092C110.212 9.7 110.359 10.3467 110.532 11.04C110.706 11.72 110.892 12.42 111.092 13.14C111.292 13.8467 111.499 14.5533 111.712 15.26C111.939 15.9533 112.166 16.6133 112.392 17.24C112.592 16.7333 112.799 16.14 113.012 15.46C113.239 14.78 113.459 14.0733 113.672 13.34C113.886 12.6067 114.086 11.8733 114.272 11.14C114.459 10.4067 114.619 9.72667 114.752 9.1H116.672C116.152 11.14 115.599 13.04 115.012 14.8C114.426 16.56 113.826 18.1267 113.212 19.5H111.592ZM120.499 19.5H118.639V9.1H120.499V19.5ZM119.559 7.22C119.226 7.22 118.939 7.11333 118.699 6.9C118.472 6.67333 118.359 6.37333 118.359 6C118.359 5.62667 118.472 5.33333 118.699 5.12C118.939 4.89333 119.226 4.78 119.559 4.78C119.892 4.78 120.172 4.89333 120.399 5.12C120.639 5.33333 120.759 5.62667 120.759 6C120.759 6.37333 120.639 6.67333 120.399 6.9C120.172 7.11333 119.892 7.22 119.559 7.22ZM125.438 9.1H129.378V10.66H125.438V15.46C125.438 15.98 125.478 16.4133 125.558 16.76C125.638 17.0933 125.758 17.36 125.918 17.56C126.078 17.7467 126.278 17.88 126.518 17.96C126.758 18.04 127.038 18.08 127.358 18.08C127.918 18.08 128.364 18.02 128.698 17.9C129.044 17.7667 129.284 17.6733 129.418 17.62L129.778 19.16C129.591 19.2533 129.264 19.3667 128.798 19.5C128.331 19.6467 127.798 19.72 127.198 19.72C126.491 19.72 125.904 19.6333 125.438 19.46C124.984 19.2733 124.618 19 124.338 18.64C124.058 18.28 123.858 17.84 123.738 17.32C123.631 16.7867 123.578 16.1733 123.578 15.48V6.2L125.438 5.88V9.1ZM131.745 19.5V4.3L133.605 3.98V9.3C133.951 9.16667 134.318 9.06667 134.705 9C135.105 8.92 135.498 8.88 135.885 8.88C136.711 8.88 137.398 9 137.945 9.24C138.491 9.46667 138.925 9.79333 139.245 10.22C139.578 10.6333 139.811 11.1333 139.945 11.72C140.078 12.3067 140.145 12.9533 140.145 13.66V19.5H138.285V14.06C138.285 13.42 138.238 12.8733 138.145 12.42C138.065 11.9667 137.925 11.6 137.725 11.32C137.525 11.04 137.258 10.84 136.925 10.72C136.591 10.5867 136.178 10.52 135.685 10.52C135.485 10.52 135.278 10.5333 135.065 10.56C134.851 10.5867 134.645 10.62 134.445 10.66C134.258 10.6867 134.085 10.72 133.925 10.76C133.778 10.8 133.671 10.8333 133.605 10.86V19.5H131.745ZM153.879 19.8C152.906 19.8 152.019 19.64 151.219 19.32C150.419 19 149.733 18.5333 149.159 17.92C148.586 17.3067 148.139 16.5533 147.819 15.66C147.513 14.7533 147.359 13.72 147.359 12.56C147.359 11.4 147.533 10.3733 147.879 9.48C148.239 8.57333 148.719 7.81333 149.319 7.2C149.919 6.58667 150.619 6.12 151.419 5.8C152.219 5.48 153.073 5.32 153.979 5.32C154.553 5.32 155.066 5.36 155.519 5.44C155.986 5.52 156.386 5.61333 156.719 5.72C157.066 5.82667 157.346 5.93333 157.559 6.04C157.773 6.14667 157.919 6.22667 157.999 6.28L157.439 7.88C157.319 7.8 157.146 7.71333 156.919 7.62C156.693 7.52667 156.433 7.43333 156.139 7.34C155.859 7.24667 155.546 7.17333 155.199 7.12C154.866 7.05333 154.526 7.02 154.179 7.02C153.446 7.02 152.786 7.14667 152.199 7.4C151.613 7.65333 151.113 8.02 150.699 8.5C150.286 8.98 149.966 9.56667 149.739 10.26C149.526 10.94 149.419 11.7067 149.419 12.56C149.419 13.3867 149.513 14.14 149.699 14.82C149.899 15.5 150.193 16.0867 150.579 16.58C150.966 17.06 151.446 17.4333 152.019 17.7C152.606 17.9667 153.286 18.1 154.059 18.1C154.953 18.1 155.693 18.0067 156.279 17.82C156.866 17.6333 157.306 17.4667 157.599 17.32L158.099 18.92C158.006 18.9867 157.839 19.0733 157.599 19.18C157.359 19.2733 157.059 19.3667 156.699 19.46C156.339 19.5533 155.919 19.6333 155.439 19.7C154.959 19.7667 154.439 19.8 153.879 19.8ZM163.322 19.7C162.175 19.6733 161.362 19.4267 160.882 18.96C160.402 18.4933 160.162 17.7667 160.162 16.78V4.3L162.022 3.98V16.48C162.022 16.7867 162.048 17.04 162.102 17.24C162.155 17.44 162.242 17.6 162.362 17.72C162.482 17.84 162.642 17.9333 162.842 18C163.042 18.0533 163.288 18.1 163.582 18.14L163.322 19.7ZM174.85 14.3C174.85 15.1267 174.73 15.8733 174.49 16.54C174.25 17.2067 173.91 17.78 173.47 18.26C173.044 18.74 172.53 19.1133 171.93 19.38C171.33 19.6333 170.677 19.76 169.97 19.76C169.264 19.76 168.61 19.6333 168.01 19.38C167.41 19.1133 166.89 18.74 166.45 18.26C166.024 17.78 165.69 17.2067 165.45 16.54C165.21 15.8733 165.09 15.1267 165.09 14.3C165.09 13.4867 165.21 12.7467 165.45 12.08C165.69 11.4 166.024 10.82 166.45 10.34C166.89 9.86 167.41 9.49333 168.01 9.24C168.61 8.97333 169.264 8.84 169.97 8.84C170.677 8.84 171.33 8.97333 171.93 9.24C172.53 9.49333 173.044 9.86 173.47 10.34C173.91 10.82 174.25 11.4 174.49 12.08C174.73 12.7467 174.85 13.4867 174.85 14.3ZM172.91 14.3C172.91 13.1267 172.644 12.2 172.11 11.52C171.59 10.8267 170.877 10.48 169.97 10.48C169.064 10.48 168.344 10.8267 167.81 11.52C167.29 12.2 167.03 13.1267 167.03 14.3C167.03 15.4733 167.29 16.4067 167.81 17.1C168.344 17.78 169.064 18.12 169.97 18.12C170.877 18.12 171.59 17.78 172.11 17.1C172.644 16.4067 172.91 15.4733 172.91 14.3ZM179.887 18.16C180.647 18.16 181.207 18.06 181.567 17.86C181.941 17.66 182.127 17.34 182.127 16.9C182.127 16.4467 181.947 16.0867 181.587 15.82C181.227 15.5533 180.634 15.2533 179.807 14.92C179.407 14.76 179.021 14.6 178.647 14.44C178.287 14.2667 177.974 14.0667 177.707 13.84C177.441 13.6133 177.227 13.34 177.067 13.02C176.907 12.7 176.827 12.3067 176.827 11.84C176.827 10.92 177.167 10.1933 177.847 9.66C178.527 9.11333 179.454 8.84 180.627 8.84C180.921 8.84 181.214 8.86 181.507 8.9C181.801 8.92667 182.074 8.96667 182.327 9.02C182.581 9.06 182.801 9.10667 182.987 9.16C183.187 9.21333 183.341 9.26 183.447 9.3L183.107 10.9C182.907 10.7933 182.594 10.6867 182.167 10.58C181.741 10.46 181.227 10.4 180.627 10.4C180.107 10.4 179.654 10.5067 179.267 10.72C178.881 10.92 178.687 11.24 178.687 11.68C178.687 11.9067 178.727 12.1067 178.807 12.28C178.901 12.4533 179.034 12.6133 179.207 12.76C179.394 12.8933 179.621 13.02 179.887 13.14C180.154 13.26 180.474 13.3867 180.847 13.52C181.341 13.7067 181.781 13.8933 182.167 14.08C182.554 14.2533 182.881 14.46 183.147 14.7C183.427 14.94 183.641 15.2333 183.787 15.58C183.934 15.9133 184.007 16.3267 184.007 16.82C184.007 17.78 183.647 18.5067 182.927 19C182.221 19.4933 181.207 19.74 179.887 19.74C178.967 19.74 178.247 19.66 177.727 19.5C177.207 19.3533 176.854 19.24 176.667 19.16L177.007 17.56C177.221 17.64 177.561 17.76 178.027 17.92C178.494 18.08 179.114 18.16 179.887 18.16ZM185.813 14.32C185.813 13.4 185.946 12.6 186.213 11.92C186.48 11.2267 186.833 10.6533 187.273 10.2C187.713 9.74667 188.22 9.40667 188.793 9.18C189.366 8.95333 189.953 8.84 190.553 8.84C191.953 8.84 193.026 9.28 193.773 10.16C194.52 11.0267 194.893 12.3533 194.893 14.14C194.893 14.22 194.893 14.3267 194.893 14.46C194.893 14.58 194.886 14.6933 194.873 14.8H187.753C187.833 15.88 188.146 16.7 188.693 17.26C189.24 17.82 190.093 18.1 191.253 18.1C191.906 18.1 192.453 18.0467 192.893 17.94C193.346 17.82 193.686 17.7067 193.913 17.6L194.173 19.16C193.946 19.28 193.546 19.4067 192.973 19.54C192.413 19.6733 191.773 19.74 191.053 19.74C190.146 19.74 189.36 19.6067 188.693 19.34C188.04 19.06 187.5 18.68 187.073 18.2C186.646 17.72 186.326 17.1533 186.113 16.5C185.913 15.8333 185.813 15.1067 185.813 14.32ZM192.953 13.3C192.966 12.46 192.753 11.7733 192.313 11.24C191.886 10.6933 191.293 10.42 190.533 10.42C190.106 10.42 189.726 10.5067 189.393 10.68C189.073 10.84 188.8 11.0533 188.573 11.32C188.346 11.5867 188.166 11.8933 188.033 12.24C187.913 12.5867 187.833 12.94 187.793 13.3H192.953Z" fill="black"/>
<path d="M202.375 7.5L199 10.7727L208 19.5L217 10.7727L213.625 7.5L208 12.9545L202.375 7.5Z" fill="black"/>
</svg>
