<svg width="221" height="435" viewBox="0 0 221 435" fill="none" xmlns="http://www.w3.org/2000/svg">
<path d="M102.423 242.504C100.87 242.507 99.3591 242.014 98.1171 241.1L98.04 241.043L81.8221 228.869C81.071 228.304 80.4407 227.599 79.9671 226.795C79.4935 225.991 79.186 225.103 79.0621 224.182C78.9381 223.261 79.0002 222.326 79.2448 221.428C79.4893 220.531 79.9116 219.69 80.4874 218.953C81.0633 218.216 81.7814 217.597 82.6009 217.132C83.4203 216.668 84.325 216.366 85.2633 216.244C86.2016 216.123 87.1551 216.184 88.0694 216.424C88.9838 216.664 89.8409 217.078 90.5921 217.643L101.097 225.548L125.92 193.768C126.495 193.032 127.213 192.413 128.032 191.949C128.851 191.484 129.756 191.182 130.694 191.061C131.631 190.939 132.585 191 133.499 191.24C134.412 191.48 135.269 191.894 136.02 192.459L136.022 192.461L135.868 192.671L136.026 192.461C137.541 193.603 138.532 195.288 138.782 197.147C139.032 199.006 138.52 200.886 137.359 202.375L108.162 239.738C107.486 240.599 106.618 241.295 105.624 241.774C104.629 242.252 103.536 242.499 102.429 242.496L102.423 242.504Z" fill="white"/>
<path d="M220.818 103.274H218.384V37.8598C218.384 32.888 217.387 27.9649 215.448 23.3715C213.509 18.7782 210.667 14.6045 207.085 11.0889C203.502 7.57329 199.249 4.78456 194.568 2.88192C189.888 0.979283 184.871 4.21252e-06 179.805 0H38.58C28.348 -1.91417e-05 18.535 3.98875 11.2999 11.0888C4.0647 18.1889 2.16731e-05 27.8187 0 37.8597V396.726C-5.3657e-06 401.697 0.997895 406.621 2.93671 411.214C4.87553 415.807 7.71731 419.981 11.2998 423.497C14.8823 427.012 19.1353 429.801 23.816 431.704C28.4967 433.606 33.5135 434.585 38.5799 434.585H179.804C190.036 434.586 199.849 430.597 207.084 423.497C214.32 416.397 218.384 406.767 218.384 396.726V149.836H220.818V103.274Z" fill="#3F3D56"/>
<path d="M179.633 10H161.199C162.047 12.0396 162.37 14.2525 162.141 16.4438C161.912 18.6351 161.137 20.7374 159.885 22.5657C158.633 24.3939 156.942 25.892 154.961 26.9278C152.98 27.9637 150.77 28.5055 148.526 28.5057H67.6199C65.3753 28.5056 63.1651 27.9637 61.1841 26.9278C59.2031 25.892 57.5121 24.3939 56.2601 22.5657C55.008 20.7374 54.2334 18.6351 54.0043 16.4438C53.7753 14.2525 54.0989 12.0396 54.9467 10H37.7288C33.9453 10 30.1988 10.7313 26.7033 12.1522C23.2078 13.573 20.0317 15.6556 17.3563 18.281C14.6809 20.9065 12.5587 24.0233 11.1108 27.4535C9.66295 30.8838 8.91773 34.5604 8.91772 38.2733V396.613C8.91772 400.326 9.66296 404.002 11.1108 407.432C12.5587 410.863 14.6809 413.979 17.3563 416.605C20.0316 419.23 23.2078 421.313 26.7033 422.734C30.1988 424.155 33.9453 424.886 37.7288 424.886H179.633C183.417 424.886 187.163 424.155 190.659 422.734C194.154 421.313 197.33 419.23 200.006 416.605C202.681 413.979 204.803 410.863 206.251 407.432C207.699 404.002 208.444 400.326 208.444 396.613V38.2733C208.444 34.5604 207.699 30.8838 206.251 27.4535C204.803 24.0233 202.681 20.9065 200.006 18.281C197.33 15.6556 194.154 13.573 190.659 12.1522C187.163 10.7313 183.417 9.99999 179.633 10Z" fill="white"/>
<path d="M110.409 277.212C148.521 277.212 179.417 246.893 179.417 209.492C179.417 172.091 148.521 141.772 110.409 141.772C72.2967 141.772 41.4006 172.091 41.4006 209.492C41.4006 246.893 72.2967 277.212 110.409 277.212Z" fill="#143078"/>
<path d="M87.6198 320.464C85.4351 320.464 83.8304 319.913 82.8058 318.811C81.7811 317.709 81.2688 315.882 81.2688 313.33C81.2688 311.3 81.6071 309.115 82.2838 306.776C82.9798 304.437 84.0818 302.436 85.5898 300.773C87.1171 299.091 89.0504 298.25 91.3898 298.25C92.8398 298.25 94.0094 298.569 94.8988 299.207C95.7881 299.845 96.2328 300.821 96.2328 302.136C96.2328 302.967 96.0684 303.625 95.7398 304.108C95.4111 304.572 94.8988 304.804 94.2028 304.804C93.5068 304.804 92.9558 304.553 92.5498 304.05C92.8978 303.876 93.2071 303.528 93.4778 303.006C93.7484 302.484 93.8838 301.943 93.8838 301.382C93.8838 300.86 93.7388 300.435 93.4488 300.106C93.1781 299.777 92.7334 299.613 92.1148 299.613C91.0901 299.613 90.1138 300.319 89.1858 301.73C88.2578 303.122 87.5038 304.881 86.9238 307.008C86.3631 309.135 86.0828 311.184 86.0828 313.156C86.0828 314.625 86.3341 315.747 86.8368 316.52C87.3394 317.293 88.2481 317.68 89.5628 317.68C90.7034 317.68 91.7571 317.429 92.7238 316.926C93.6904 316.423 94.5218 315.708 95.2178 314.78L95.8848 315.07C95.4014 316.288 94.6861 317.303 93.7388 318.115C92.7914 318.927 91.7764 319.526 90.6938 319.913C89.6111 320.28 88.5864 320.464 87.6198 320.464ZM98.0038 320.174C97.0758 320.174 96.3218 319.884 95.7418 319.304C95.1811 318.724 94.9008 317.854 94.9008 316.694C94.9008 316.211 94.9781 315.582 95.1328 314.809L98.2358 300.28L102.528 299.7L99.1928 315.36C99.1155 315.65 99.0768 315.959 99.0768 316.288C99.0768 316.675 99.1638 316.955 99.3378 317.129C99.5311 317.284 99.8405 317.361 100.266 317.361C100.826 317.361 101.348 317.129 101.832 316.665C102.315 316.182 102.663 315.563 102.876 314.809H104.094C103.378 316.897 102.46 318.318 101.339 319.072C100.217 319.807 99.1058 320.174 98.0038 320.174ZM118.582 320.174C117.036 320.174 115.972 319.807 115.392 319.072C114.832 318.337 114.551 317.419 114.551 316.317C114.551 315.505 114.764 314.848 115.189 314.345C115.615 313.823 116.098 313.562 116.639 313.562C117.645 313.562 118.147 313.968 118.147 314.78C118.147 315.128 118.012 315.437 117.741 315.708C117.471 315.959 117.142 316.085 116.755 316.085C116.349 316.085 116.088 315.959 115.972 315.708C115.972 316.404 116.108 316.945 116.378 317.332C116.668 317.699 117.094 317.883 117.654 317.883C118.312 317.883 118.776 317.69 119.046 317.303C119.336 316.897 119.481 316.191 119.481 315.186C119.481 314.606 119.423 313.871 119.307 312.982C119.114 311.126 118.959 309.231 118.843 307.298C117.471 309.405 115.847 310.739 113.971 311.3C113.855 313.079 113.478 314.635 112.84 315.969C112.202 317.303 111.381 318.328 110.375 319.043C109.389 319.758 108.297 320.116 107.098 320.116C105.668 320.116 104.537 319.749 103.705 319.014C102.874 318.279 102.458 317.119 102.458 315.534C102.458 314.2 102.719 312.74 103.241 311.155C103.763 309.55 104.614 308.168 105.793 307.008C106.973 305.829 108.481 305.239 110.317 305.239C112.773 305.239 114.01 306.757 114.029 309.792C115.46 309.715 117.036 308.178 118.756 305.181L123.048 304.601C123.145 307.076 123.309 309.753 123.541 312.634C123.638 313.794 123.686 314.635 123.686 315.157C123.686 315.544 123.657 315.901 123.599 316.23C124.179 315.901 124.866 315.428 125.658 314.809H126.876C125.813 316.046 124.469 317.177 122.845 318.202C122.362 318.898 121.743 319.401 120.989 319.71C120.255 320.019 119.452 320.174 118.582 320.174ZM108.258 317.506C108.974 317.506 109.641 316.936 110.259 315.795C110.878 314.635 111.303 313.204 111.535 311.503C111.071 311.329 110.839 310.894 110.839 310.198C110.839 309.444 111.11 308.941 111.651 308.69C111.613 308.071 111.506 307.636 111.332 307.385C111.178 307.134 110.917 307.008 110.549 307.008C109.911 307.008 109.302 307.472 108.722 308.4C108.142 309.309 107.669 310.42 107.301 311.735C106.953 313.03 106.779 314.171 106.779 315.157C106.779 316.085 106.886 316.713 107.098 317.042C107.311 317.351 107.698 317.506 108.258 317.506ZM129.751 320.174C128.34 320.174 127.238 319.807 126.445 319.072C125.652 318.318 125.256 317.148 125.256 315.563C125.256 314.229 125.517 312.76 126.039 311.155C126.561 309.55 127.412 308.168 128.591 307.008C129.77 305.829 131.269 305.239 133.086 305.239C135.213 305.239 136.276 306.167 136.276 308.023C136.276 309.106 135.967 310.101 135.348 311.01C134.729 311.919 133.908 312.653 132.883 313.214C131.858 313.755 130.766 314.065 129.606 314.142C129.567 314.567 129.548 314.857 129.548 315.012C129.548 316.617 130.147 317.419 131.346 317.419C131.887 317.419 132.467 317.274 133.086 316.984C133.705 316.694 134.265 316.327 134.768 315.882C134.246 318.743 132.574 320.174 129.751 320.174ZM129.809 312.75C130.544 312.731 131.23 312.489 131.868 312.025C132.525 311.561 133.047 310.971 133.434 310.256C133.84 309.521 134.043 308.758 134.043 307.965C134.043 307.172 133.801 306.776 133.318 306.776C132.641 306.776 131.965 307.395 131.288 308.632C130.631 309.85 130.138 311.223 129.809 312.75ZM91.4549 371.697C90.3616 371.697 89.4049 371.465 88.5849 371C87.7922 370.563 87.3959 369.784 87.3959 368.663C87.3959 367.952 87.5736 367.16 87.9289 366.285C88.4209 366.832 88.8719 367.214 89.2819 367.433C89.7192 367.652 90.1839 367.761 90.6759 367.761C92.0426 367.761 93.0539 366.996 93.7099 365.465C94.3932 363.934 94.7349 362.24 94.7349 360.381C94.7349 356.91 93.4366 355.174 90.8399 355.174C90.1019 355.174 89.4732 355.215 88.9539 355.297L85.5919 371H79.6879L85.2639 344.924L91.3319 344.104L89.4049 353.206H89.6509C90.6896 353.206 91.6599 352.878 92.5619 352.222C93.4639 351.539 94.1882 350.691 94.7349 349.68C95.2816 348.641 95.5549 347.603 95.5549 346.564C95.5549 345.307 95.1039 344.254 94.2019 343.407C93.3272 342.56 91.9742 342.136 90.1429 342.136C88.4756 342.136 86.8492 342.519 85.2639 343.284C83.6786 344.022 82.3802 345.143 81.3689 346.646C80.3849 348.149 79.8929 349.967 79.8929 352.099C79.8929 353.11 79.9886 353.821 80.1799 354.231C80.3712 354.614 80.4669 354.832 80.4669 354.887C79.0182 354.887 77.9249 354.6 77.1869 354.026C76.4489 353.425 76.0799 352.454 76.0799 351.115C76.0799 349.256 76.7769 347.493 78.1709 345.826C79.5649 344.159 81.4099 342.819 83.7059 341.808C86.0019 340.769 88.4209 340.25 90.9629 340.25C92.8762 340.25 94.4889 340.551 95.8009 341.152C97.1129 341.753 98.0832 342.546 98.7119 343.53C99.3679 344.514 99.6959 345.594 99.6959 346.769C99.6959 348.026 99.3406 349.243 98.6299 350.418C97.9192 351.593 96.9079 352.55 95.5959 353.288C97.2359 353.589 98.4522 354.354 99.2449 355.584C100.038 356.787 100.434 358.222 100.434 359.889C100.434 361.447 100.133 363.142 99.5319 364.973C98.9579 366.804 97.9876 368.39 96.6209 369.729C95.2816 371.041 93.5596 371.697 91.4549 371.697ZM105.913 371.246C104.601 371.246 103.535 370.836 102.715 370.016C101.922 369.196 101.526 367.966 101.526 366.326C101.526 365.643 101.635 364.754 101.854 363.661L104.642 350.5H110.546L107.594 364.44C107.512 364.85 107.471 365.233 107.471 365.588C107.471 366.709 107.881 367.269 108.701 367.269C109.466 367.269 110.122 366.955 110.669 366.326C111.215 365.67 111.653 364.782 111.981 363.661L114.769 350.5H120.673L117.721 364.44C117.611 364.85 117.557 365.287 117.557 365.752C117.557 366.299 117.68 366.695 117.926 366.941C118.199 367.16 118.636 367.269 119.238 367.269C120.003 367.269 120.659 366.941 121.206 366.285C121.78 365.629 122.231 364.754 122.559 363.661H124.281C123.269 366.613 122.012 368.622 120.509 369.688C119.033 370.727 117.543 371.246 116.04 371.246C114.864 371.246 113.921 370.918 113.211 370.262C112.527 369.606 112.117 368.636 111.981 367.351C111.051 368.854 110.067 369.879 109.029 370.426C108.017 370.973 106.979 371.246 105.913 371.246ZM128.95 381.25C127.665 381.25 126.531 380.826 125.547 379.979C124.59 379.159 124.112 378.107 124.112 376.822C124.112 375.619 124.412 374.635 125.014 373.87C125.615 373.105 126.394 372.503 127.351 372.066C128.307 371.629 129.592 371.164 131.205 370.672L131.615 368.868C130.221 370.453 128.553 371.246 126.613 371.246C125.301 371.246 124.235 370.836 123.415 370.016C122.622 369.196 122.226 367.966 122.226 366.326C122.226 365.643 122.335 364.754 122.554 363.661L125.342 350.5H131.246L128.294 364.44C128.212 364.768 128.171 365.11 128.171 365.465C128.171 366.668 128.581 367.269 129.401 367.269C130.166 367.269 130.822 366.955 131.369 366.326C131.915 365.67 132.353 364.782 132.681 363.661L135.469 350.5H141.414L136.412 374.28C135.865 376.904 134.895 378.722 133.501 379.733C132.134 380.744 130.617 381.25 128.95 381.25ZM128.007 377.601C128.499 377.601 128.963 377.341 129.401 376.822C129.838 376.33 130.18 375.524 130.426 374.403L130.918 371.984C129.469 372.476 128.348 373.05 127.556 373.706C126.763 374.362 126.367 375.209 126.367 376.248C126.367 376.576 126.531 376.877 126.859 377.15C127.187 377.451 127.569 377.601 128.007 377.601Z" fill="#143078"/>
</svg>
