<svg width="123" height="53" viewBox="0 0 123 53" fill="none" xmlns="http://www.w3.org/2000/svg">
<rect x="0.354736" width="122" height="53" rx="26.5" fill="#285CE2"/>
<path d="M36.3338 32.62C38.3605 32.62 39.3738 31.9267 39.3738 30.54C39.3738 30.1133 39.2805 29.7533 39.0938 29.46C38.9205 29.1533 38.6805 28.8933 38.3738 28.68C38.0671 28.4533 37.7138 28.26 37.3138 28.1C36.9271 27.94 36.5138 27.78 36.0738 27.62C35.5671 27.4467 35.0871 27.2533 34.6338 27.04C34.1805 26.8133 33.7871 26.5533 33.4538 26.26C33.1205 25.9533 32.8538 25.5933 32.6538 25.18C32.4671 24.7667 32.3738 24.2667 32.3738 23.68C32.3738 22.4667 32.7871 21.52 33.6138 20.84C34.4405 20.16 35.5805 19.82 37.0338 19.82C37.8738 19.82 38.6338 19.9133 39.3138 20.1C40.0071 20.2733 40.5138 20.4667 40.8338 20.68L40.2138 22.26C39.9338 22.0867 39.5138 21.92 38.9538 21.76C38.4071 21.5867 37.7671 21.5 37.0338 21.5C36.6605 21.5 36.3138 21.54 35.9938 21.62C35.6738 21.7 35.3938 21.82 35.1538 21.98C34.9138 22.14 34.7205 22.3467 34.5738 22.6C34.4405 22.84 34.3738 23.1267 34.3738 23.46C34.3738 23.8333 34.4471 24.1467 34.5938 24.4C34.7405 24.6533 34.9471 24.88 35.2138 25.08C35.4805 25.2667 35.7871 25.44 36.1338 25.6C36.4938 25.76 36.8871 25.92 37.3138 26.08C37.9138 26.32 38.4605 26.56 38.9538 26.8C39.4605 27.04 39.8938 27.3267 40.2538 27.66C40.6271 27.9933 40.9138 28.3933 41.1138 28.86C41.3138 29.3133 41.4138 29.8667 41.4138 30.52C41.4138 31.7333 40.9671 32.6667 40.0738 33.32C39.1938 33.9733 37.9471 34.3 36.3338 34.3C35.7871 34.3 35.2805 34.26 34.8138 34.18C34.3605 34.1133 33.9538 34.0333 33.5938 33.94C33.2338 33.8333 32.9205 33.7267 32.6538 33.62C32.4005 33.5 32.2005 33.4 32.0538 33.32L32.6338 31.72C32.9405 31.8933 33.4071 32.0867 34.0338 32.3C34.6605 32.5133 35.4271 32.62 36.3338 32.62ZM45.4983 34H43.6383V23.6H45.4983V34ZM44.5583 21.72C44.225 21.72 43.9383 21.6133 43.6983 21.4C43.4717 21.1733 43.3583 20.8733 43.3583 20.5C43.3583 20.1267 43.4717 19.8333 43.6983 19.62C43.9383 19.3933 44.225 19.28 44.5583 19.28C44.8917 19.28 45.1717 19.3933 45.3983 19.62C45.6383 19.8333 45.7583 20.1267 45.7583 20.5C45.7583 20.8733 45.6383 21.1733 45.3983 21.4C45.1717 21.6133 44.8917 21.72 44.5583 21.72ZM55.2169 32.96C55.0569 33.0667 54.7436 33.2067 54.2769 33.38C53.8236 33.54 53.2903 33.62 52.6769 33.62C52.0503 33.62 51.4569 33.52 50.8969 33.32C50.3503 33.12 49.8703 32.8133 49.4569 32.4C49.0436 31.9733 48.7169 31.4467 48.4769 30.82C48.2369 30.1933 48.1169 29.4467 48.1169 28.58C48.1169 27.82 48.2303 27.1267 48.4569 26.5C48.6836 25.86 49.0103 25.3133 49.4369 24.86C49.8769 24.3933 50.4103 24.0333 51.0369 23.78C51.6636 23.5133 52.3703 23.38 53.1569 23.38C54.0236 23.38 54.7769 23.4467 55.4169 23.58C56.0703 23.7 56.6169 23.8133 57.0569 23.92V33.2C57.0569 34.8 56.6436 35.96 55.8169 36.68C54.9903 37.4 53.7369 37.76 52.0569 37.76C51.4036 37.76 50.7836 37.7067 50.1969 37.6C49.6236 37.4933 49.1236 37.3667 48.6969 37.22L49.0369 35.6C49.4103 35.7467 49.8636 35.8733 50.3969 35.98C50.9436 36.1 51.5103 36.16 52.0969 36.16C53.2036 36.16 53.9969 35.94 54.4769 35.5C54.9703 35.06 55.2169 34.36 55.2169 33.4V32.96ZM55.1969 25.24C55.0103 25.1867 54.7569 25.14 54.4369 25.1C54.1303 25.0467 53.7103 25.02 53.1769 25.02C52.1769 25.02 51.4036 25.3467 50.8569 26C50.3236 26.6533 50.0569 27.52 50.0569 28.6C50.0569 29.2 50.1303 29.7133 50.2769 30.14C50.4369 30.5667 50.6436 30.92 50.8969 31.2C51.1636 31.48 51.4636 31.6867 51.7969 31.82C52.1436 31.9533 52.4969 32.02 52.8569 32.02C53.3503 32.02 53.8036 31.9533 54.2169 31.82C54.6303 31.6733 54.9569 31.5067 55.1969 31.32V25.24ZM60.2594 23.9C60.6861 23.7933 61.2528 23.68 61.9594 23.56C62.6661 23.44 63.4794 23.38 64.3994 23.38C65.2261 23.38 65.9128 23.5 66.4594 23.74C67.0061 23.9667 67.4394 24.2933 67.7594 24.72C68.0928 25.1333 68.3261 25.6333 68.4594 26.22C68.5928 26.8067 68.6594 27.4533 68.6594 28.16V34H66.7994V28.56C66.7994 27.92 66.7528 27.3733 66.6594 26.92C66.5794 26.4667 66.4394 26.1 66.2394 25.82C66.0394 25.54 65.7728 25.34 65.4394 25.22C65.1061 25.0867 64.6928 25.02 64.1994 25.02C63.9994 25.02 63.7928 25.0267 63.5794 25.04C63.3661 25.0533 63.1594 25.0733 62.9594 25.1C62.7728 25.1133 62.5994 25.1333 62.4394 25.16C62.2928 25.1867 62.1861 25.2067 62.1194 25.22V34H60.2594V23.9ZM78.2327 34H76.3727V23.6H78.2327V34ZM77.2927 21.72C76.9594 21.72 76.6727 21.6133 76.4327 21.4C76.206 21.1733 76.0927 20.8733 76.0927 20.5C76.0927 20.1267 76.206 19.8333 76.4327 19.62C76.6727 19.3933 76.9594 19.28 77.2927 19.28C77.626 19.28 77.906 19.3933 78.1327 19.62C78.3727 19.8333 78.4927 20.1267 78.4927 20.5C78.4927 20.8733 78.3727 21.1733 78.1327 21.4C77.906 21.6133 77.626 21.72 77.2927 21.72ZM81.4313 23.9C81.858 23.7933 82.4246 23.68 83.1313 23.56C83.838 23.44 84.6513 23.38 85.5713 23.38C86.398 23.38 87.0846 23.5 87.6313 23.74C88.178 23.9667 88.6113 24.2933 88.9313 24.72C89.2646 25.1333 89.498 25.6333 89.6313 26.22C89.7646 26.8067 89.8313 27.4533 89.8313 28.16V34H87.9713V28.56C87.9713 27.92 87.9246 27.3733 87.8313 26.92C87.7513 26.4667 87.6113 26.1 87.4113 25.82C87.2113 25.54 86.9446 25.34 86.6113 25.22C86.278 25.0867 85.8646 25.02 85.3713 25.02C85.1713 25.02 84.9646 25.0267 84.7513 25.04C84.538 25.0533 84.3313 25.0733 84.1313 25.1C83.9446 25.1133 83.7713 25.1333 83.6113 25.16C83.4646 25.1867 83.358 25.2067 83.2913 25.22V34H81.4313V23.9Z" fill="white"/>
</svg>
