<svg width="39" height="29" viewBox="0 0 39 29" fill="none" xmlns="http://www.w3.org/2000/svg">
<path d="M2.04451 0.00980409C1.40862 0.11232 0.839191 0.465163 0.461493 0.990712C0.0837943 1.51626 -0.0712362 2.17147 0.0305059 2.81219C0.132248 3.45291 0.482428 4.02667 1.00401 4.40724C1.5256 4.78781 2.17586 4.94402 2.81174 4.8415H10.0046L10.4362 6.04943L12.4022 12.0891L14.3683 18.1287C14.5601 18.7568 15.3753 19.3366 15.9986 19.3366H32.782C33.4533 19.3366 34.2206 18.7568 34.4124 18.1287L38.2965 6.04943C38.4883 5.42131 38.2006 4.8415 37.5293 4.8415H16.2384L14.4162 1.36268C14.2221 0.963385 13.9225 0.6258 13.5502 0.3871C13.1779 0.148399 12.7475 0.0178417 12.3063 0.00980408L2.71584 0.00980409C2.57227 -0.00326803 2.42783 -0.00326803 2.28427 0.00980408C2.18845 0.00400082 2.09237 0.00400082 1.99655 0.00980408L2.04451 0.00980409ZM17.1975 24.1683C15.8548 24.1683 14.7998 25.2313 14.7998 26.5842C14.7998 27.937 15.8548 29 17.1975 29C18.5401 29 19.5951 27.937 19.5951 26.5842C19.5951 25.2313 18.5401 24.1683 17.1975 24.1683ZM31.5832 24.1683C30.2405 24.1683 29.1856 25.2313 29.1856 26.5842C29.1856 27.937 30.2405 29 31.5832 29C32.9258 29 33.9808 27.937 33.9808 26.5842C33.9808 25.2313 32.9258 24.1683 31.5832 24.1683Z" fill="black"/>
</svg>
